<?xml version="1.0" encoding="UTF-8" standalone="no"?>
<!DOCTYPE svg PUBLIC "-//W3C//DTD SVG 1.1//EN" "http://www.w3.org/Graphics/SVG/1.1/DTD/svg11.dtd">
<svg version="1.1" baseProfile="full"xmlns:cc="http://web.resource.org/cc/"xmlns:rdf="http://www.w3.org/1999/02/22-rdf-syntax-ns#"xmlns:ev="http://www.w3.org/2001/xml-events"xmlns:svg="http://www.w3.org/2000/svg"xmlns="http://www.w3.org/2000/svg"xmlns:xlink="http://www.w3.org/1999/xlink"width="646" height="236">
<!--This SVG file was automatically generated by ScxmlEditor[2.2.6.1652] from [ChildMachine.scxml]-->
<rect  x="0" y="0"  width="645" height="235" fill="white"/>
<polyline fill="none"  stroke="rgb(160,160,160)"
points="0,235 0,0 645,0 "/>
<polyline fill="none"  stroke="white"
points="645,0 645,235 -1,235 "/>
<polyline fill="none"  stroke="rgb(160,160,160)"
points="1,234 1,1 644,1 "/>
<polyline fill="none"  stroke="white"
points="644,1 644,234 0,234 "/>
<g clip-path="url(#Clip1)">
<defs>
<clipPath id="Clip1" style="clip-rule:nonzero">
<rect  x="0" y="0"  width="645" height="235"/>
</clipPath>
</defs>
<g id="ChildMachine" class="TScxmlShape" >
<polygon fill="white" stroke="black"
points="3,3 643,3 643,233 3,233 "/>
<rect  x="4" y="4"  width="638" height="16" fill="rgb(192,220,192)"/>
<line x1="3" y1="20" x2="643" y2="20" fill="none"  stroke="black"/>
<text x="456" y="17" font-family="Tahoma" font-size="10.67"  fill="maroon">
cplusplus:ChildDataModel:childmodel.h
</text>
<text x="293" y="18" font-family="Arial" font-size="10.67"  fill="black">
ChildMachine
</text>
</g>
<polygon fill="white" stroke="gray"
points="-8,114 0,114 0,122 -8,122 "/>
<line x1="-6" y1="118" x2="-1" y2="118" fill="none"  stroke="black"/>
<g id="Child" class="TStateShape" >
<polygon fill="none" stroke="black"
points="13,33 633,33 633,223 13,223 "/>
<rect  x="14" y="34"  width="618" height="16" fill="rgb(128,214,255)"/>
<line x1="13" y1="50" x2="633" y2="50" fill="none"  stroke="black"/>
<ellipse cx="22" cy="42" rx="5" ry="5" fill="black" stroke="black"/>
<text x="313" y="48" font-family="Arial" font-size="10.67"  fill="black">
Child
</text>
</g>
<polygon fill="white" stroke="gray"
points="2,124 10,124 10,132 2,132 "/>
<line x1="4" y1="128" x2="9" y2="128" fill="none"  stroke="black"/>
<g id="Child_Off" class="TStateShape" >
<rect  x="43" y="73"  width="99" height="49" fill="rgb(128,214,255)" stroke="black" rx="10" ry="10"/>
<ellipse cx="52" cy="82" rx="5" ry="5" fill="black" stroke="black"/>
<text x="72" y="103" font-family="Arial" font-size="10.67"  fill="black">
Child_Off
</text>
</g>
<g id="StateMachineConnection1__40E5C87968919C7D" class="TStateMachineConnection" >
<line x1="143" y1="98" x2="343" y2="98" fill="none"  stroke="gray" stroke-dasharray="4, 2" />
<polygon fill="white" stroke="black"
points="158,91 158,105 143,98 "/>
<polygon fill="black" stroke="black"
points="328,91 328,105 343,98 "/>
<text x="203" y="109" font-family="Arial" font-size="10.67"  font-weight="bold" fill="black">
out.child.timer
</text>
</g>
<line x1="50" y1="124" x2="50" y2="127" fill="none"  stroke="black"/>
<line x1="54" y1="131" x2="65" y2="131" fill="none"  stroke="black"/>
<polygon fill="rgb(255,255,255)" stroke="black"
points="61,129 61,133 65,131 "/>
<line x1="50" y1="135" x2="50" y2="175" fill="none"  stroke="black"/>
<line x1="54" y1="179" x2="65" y2="179" fill="none"  stroke="black"/>
<polygon fill="rgb(255,255,255)" stroke="black"
points="61,177 61,181 65,179 "/>
<polygon fill="white" stroke="gray"
points="32,94 40,94 40,102 32,102 "/>
<line x1="34" y1="98" x2="39" y2="98" fill="none"  stroke="black"/>
<g id="OnEntryStateShape1__40E5C87969EB1B7C" class="TOnEntryStateShape" >
<ellipse cx="74" cy="131" rx="7" ry="7" fill="rgb(0,170,0)" stroke="black"/>
<polygon fill="white" stroke="rgb(32,32,32)"
points="84,124 129,124 129,139 84,139 "/>
<text x="89" y="136" font-family="Arial" font-size="10.67"  fill="black">
onentry
</text>
</g>
<line x1="74" y1="140" x2="74" y2="147" fill="none"  stroke="black"/>
<line x1="74" y1="147" x2="87" y2="147" fill="none"  stroke="black"/>
<polygon fill="rgb(255,255,255)" stroke="black"
points="83,145 83,149 87,147 "/>
<line x1="74" y1="147" x2="74" y2="163" fill="none"  stroke="black"/>
<line x1="74" y1="163" x2="87" y2="163" fill="none"  stroke="black"/>
<polygon fill="rgb(255,255,255)" stroke="black"
points="83,161 83,165 87,163 "/>
<polygon fill="white" stroke="gray"
points="46,127 54,127 54,135 46,135 "/>
<line x1="48" y1="131" x2="53" y2="131" fill="none"  stroke="black"/>
<g id="SendShape1__40E5C87969EB21B3" class="TSendShape" >
<polygon fill="rgb(240,240,240)" stroke="rgb(174,174,174)"
points="89,143 101,143 101,152 89,152 "/>
<line x1="89" y1="143" x2="95" y2="148" fill="none"  stroke="rgb(174,174,174)"/>
<line x1="101" y1="143" x2="95" y2="148" fill="none"  stroke="rgb(174,174,174)"/>
<line x1="90" y1="151" x2="94" y2="148" fill="none"  stroke="rgb(200,200,200)"/>
<line x1="100" y1="151" x2="96" y2="148" fill="none"  stroke="rgb(200,200,200)"/>
<polygon fill="rgb(147,204,39)" stroke="rgb(105,150,0)"
points="96,151 101,151 101,149 104,152 101,155 101,153 96,153 "/>
<polygon fill="white" stroke="rgb(32,32,32)"
points="108,140 319,140 319,155 108,155 "/>
<text x="113" y="152" font-family="Arial" font-size="10.67"  fill="black">
send&#32;&#123;out.child.timer[1s][ID.out.child.timer]&#125;
</text>
</g>
<g id="ScriptShape1__40E5C879F9CC5468" class="TScriptShape" >
<polygon fill="rgb(221,238,245)" stroke="rgb(4,121,179)"
points="99,170 99,167 90,167 89,168 89,169 90,170 "/>
<polygon fill="rgb(221,238,245)" stroke="rgb(4,121,179)"
points="91,167 91,158 92,157 101,157 101,169 100,170 100,170 99,170 99,167 "/>
<polygon fill="rgb(221,238,245)" stroke="rgb(4,121,179)"
points="101,157 102,157 103,158 103,159 102,160 101,160 "/>
<polygon fill="white" stroke="rgb(32,32,32)"
points="108,156 277,156 277,171 108,171 "/>
<text x="113" y="168" font-family="Arial" font-size="10.67"  fill="black">
script&#32;&#123;testChild(&quot;Child&#32;---&gt;&#32;Off&quot;);&#125;
</text>
</g>
<g id="OnExitStateShape1__40E5C87969EB21B3" class="TOnExitStateShape" >
<ellipse cx="74" cy="179" rx="7" ry="7" fill="rgb(225,0,0)" stroke="black"/>
<polygon fill="white" stroke="rgb(32,32,32)"
points="84,172 121,172 121,187 84,187 "/>
<text x="89" y="184" font-family="Arial" font-size="10.67"  fill="black">
onexit
</text>
</g>
<line x1="74" y1="188" x2="74" y2="195" fill="none"  stroke="black"/>
<line x1="74" y1="195" x2="87" y2="195" fill="none"  stroke="black"/>
<polygon fill="rgb(255,255,255)" stroke="black"
points="83,193 83,197 87,195 "/>
<polygon fill="white" stroke="gray"
points="46,175 54,175 54,183 46,183 "/>
<line x1="48" y1="179" x2="53" y2="179" fill="none"  stroke="black"/>
<g id="CancelShape1__40E5C87969EB27EA" class="TCancelShape" >
<polygon fill="white" stroke="red"
points="91,190 102,190 102,199 91,199 "/>
<polygon fill="rgb(249,242,180)" stroke="rgb(134,98,4)"
points="89,198 93,194 94,195 94,196 97,196 98,197 98,199 97,200 94,200 94,201 93,202 "/>
<polygon fill="white" stroke="rgb(32,32,32)"
points="108,188 237,188 237,203 108,203 "/>
<text x="113" y="200" font-family="Arial" font-size="10.67"  fill="black">
cancel&#32;&#123;ID.out.child.timer&#125;
</text>
</g>
<g id="Child_On" class="TStateShape" >
<rect  x="343" y="73"  width="99" height="49" fill="rgb(128,214,255)" stroke="black" rx="10" ry="10"/>
<text x="373" y="103" font-family="Arial" font-size="10.67"  fill="black">
Child_On
</text>
</g>
<line x1="350" y1="124" x2="350" y2="127" fill="none"  stroke="black"/>
<line x1="354" y1="131" x2="365" y2="131" fill="none"  stroke="black"/>
<polygon fill="rgb(255,255,255)" stroke="black"
points="361,129 361,133 365,131 "/>
<line x1="350" y1="135" x2="350" y2="175" fill="none"  stroke="black"/>
<line x1="354" y1="179" x2="365" y2="179" fill="none"  stroke="black"/>
<polygon fill="rgb(255,255,255)" stroke="black"
points="361,177 361,181 365,179 "/>
<polygon fill="white" stroke="gray"
points="332,94 340,94 340,102 332,102 "/>
<line x1="334" y1="98" x2="339" y2="98" fill="none"  stroke="black"/>
<g id="OnEntryStateShape2__40E5C8796AAFEF0F" class="TOnEntryStateShape" >
<ellipse cx="374" cy="131" rx="7" ry="7" fill="rgb(0,170,0)" stroke="black"/>
<polygon fill="white" stroke="rgb(32,32,32)"
points="384,124 429,124 429,139 384,139 "/>
<text x="389" y="136" font-family="Arial" font-size="10.67"  fill="black">
onentry
</text>
</g>
<line x1="374" y1="140" x2="374" y2="147" fill="none"  stroke="black"/>
<line x1="374" y1="147" x2="387" y2="147" fill="none"  stroke="black"/>
<polygon fill="rgb(255,255,255)" stroke="black"
points="383,145 383,149 387,147 "/>
<line x1="374" y1="147" x2="374" y2="163" fill="none"  stroke="black"/>
<line x1="374" y1="163" x2="387" y2="163" fill="none"  stroke="black"/>
<polygon fill="rgb(255,255,255)" stroke="black"
points="383,161 383,165 387,163 "/>
<polygon fill="white" stroke="gray"
points="346,127 354,127 354,135 346,135 "/>
<line x1="348" y1="131" x2="353" y2="131" fill="none"  stroke="black"/>
<g id="SendShape2__40E5C8796AAFF546" class="TSendShape" >
<polygon fill="rgb(240,240,240)" stroke="rgb(174,174,174)"
points="389,143 401,143 401,152 389,152 "/>
<line x1="389" y1="143" x2="395" y2="148" fill="none"  stroke="rgb(174,174,174)"/>
<line x1="401" y1="143" x2="395" y2="148" fill="none"  stroke="rgb(174,174,174)"/>
<line x1="390" y1="151" x2="394" y2="148" fill="none"  stroke="rgb(200,200,200)"/>
<line x1="400" y1="151" x2="396" y2="148" fill="none"  stroke="rgb(200,200,200)"/>
<polygon fill="rgb(147,204,39)" stroke="rgb(105,150,0)"
points="396,151 401,151 401,149 404,152 401,155 401,153 396,153 "/>
<polygon fill="white" stroke="rgb(32,32,32)"
points="408,140 619,140 619,155 408,155 "/>
<text x="413" y="152" font-family="Arial" font-size="10.67"  fill="black">
send&#32;&#123;out.child.timer[1s][ID.out.child.timer]&#125;
</text>
</g>
<g id="ScriptShape2__40E5C879FBBC12BA" class="TScriptShape" >
<polygon fill="rgb(221,238,245)" stroke="rgb(4,121,179)"
points="399,170 399,167 390,167 389,168 389,169 390,170 "/>
<polygon fill="rgb(221,238,245)" stroke="rgb(4,121,179)"
points="391,167 391,158 392,157 401,157 401,169 400,170 400,170 399,170 399,167 "/>
<polygon fill="rgb(221,238,245)" stroke="rgb(4,121,179)"
points="401,157 402,157 403,158 403,159 402,160 401,160 "/>
<polygon fill="white" stroke="rgb(32,32,32)"
points="408,156 575,156 575,171 408,171 "/>
<text x="413" y="168" font-family="Arial" font-size="10.67"  fill="black">
script&#32;&#123;testChild(&quot;Child&#32;---&gt;&#32;On&quot;);&#125;
</text>
</g>
<g id="OnExitStateShape2__40E5C8796AB001B3" class="TOnExitStateShape" >
<ellipse cx="374" cy="179" rx="7" ry="7" fill="rgb(225,0,0)" stroke="black"/>
<polygon fill="white" stroke="rgb(32,32,32)"
points="384,172 421,172 421,187 384,187 "/>
<text x="389" y="184" font-family="Arial" font-size="10.67"  fill="black">
onexit
</text>
</g>
<line x1="374" y1="188" x2="374" y2="195" fill="none"  stroke="black"/>
<line x1="374" y1="195" x2="387" y2="195" fill="none"  stroke="black"/>
<polygon fill="rgb(255,255,255)" stroke="black"
points="383,193 383,197 387,195 "/>
<polygon fill="white" stroke="gray"
points="346,175 354,175 354,183 346,183 "/>
<line x1="348" y1="179" x2="353" y2="179" fill="none"  stroke="black"/>
<g id="CancelShape2__40E5C8796AB007EA" class="TCancelShape" >
<polygon fill="white" stroke="red"
points="391,190 402,190 402,199 391,199 "/>
<polygon fill="rgb(249,242,180)" stroke="rgb(134,98,4)"
points="389,198 393,194 394,195 394,196 397,196 398,197 398,199 397,200 394,200 394,201 393,202 "/>
<polygon fill="white" stroke="rgb(32,32,32)"
points="408,188 537,188 537,203 408,203 "/>
<text x="413" y="200" font-family="Arial" font-size="10.67"  fill="black">
cancel&#32;&#123;ID.out.child.timer&#125;
</text>
</g>
</g>
<polyline fill="none"  stroke="rgb(160,160,160)"
points="0,235 0,0 645,0 "/>
<polyline fill="none"  stroke="white"
points="645,0 645,235 -1,235 "/>
<polyline fill="none"  stroke="rgb(160,160,160)"
points="1,234 1,1 644,1 "/>
<polyline fill="none"  stroke="white"
points="644,1 644,234 0,234 "/>
</svg>
