<?xml version="1.0" encoding="UTF-8" standalone="no"?>
<!DOCTYPE svg PUBLIC "-//W3C//DTD SVG 1.1//EN" "http://www.w3.org/Graphics/SVG/1.1/DTD/svg11.dtd">
<svg version="1.1" baseProfile="full"xmlns:cc="http://web.resource.org/cc/"xmlns:rdf="http://www.w3.org/1999/02/22-rdf-syntax-ns#"xmlns:ev="http://www.w3.org/2001/xml-events"xmlns:svg="http://www.w3.org/2000/svg"xmlns="http://www.w3.org/2000/svg"xmlns:xlink="http://www.w3.org/1999/xlink"width="286" height="336">
<!--This SVG file was automatically generated by ScxmlEditor[2.2.6.1652] from [RootMachine.scxml]-->
<rect  x="0" y="0"  width="285" height="335" fill="white"/>
<polyline fill="none"  stroke="rgb(160,160,160)"
points="0,335 0,0 285,0 "/>
<polyline fill="none"  stroke="white"
points="285,0 285,335 -1,335 "/>
<polyline fill="none"  stroke="rgb(160,160,160)"
points="1,334 1,1 284,1 "/>
<polyline fill="none"  stroke="white"
points="284,1 284,334 0,334 "/>
<g clip-path="url(#Clip1)">
<defs>
<clipPath id="Clip1" style="clip-rule:nonzero">
<rect  x="0" y="0"  width="285" height="335"/>
</clipPath>
</defs>
<g id="RootMachine" class="TScxmlShape" >
<polygon fill="white" stroke="black"
points="3,3 283,3 283,333 3,333 "/>
<rect  x="4" y="4"  width="278" height="16" fill="rgb(192,220,192)"/>
<line x1="3" y1="20" x2="283" y2="20" fill="none"  stroke="black"/>
<text x="97" y="17" font-family="Tahoma" font-size="10.67"  fill="maroon">
cplusplus:RootDataModel:rootmodel.h
</text>
<text x="7" y="18" font-family="Arial" font-size="10.67"  fill="black">
RootMachine
</text>
</g>
<polygon fill="white" stroke="gray"
points="-8,164 0,164 0,172 -8,172 "/>
<line x1="-6" y1="168" x2="-1" y2="168" fill="none"  stroke="black"/>
<g id="RootReady" class="TStateShape" >
<rect  x="23" y="43"  width="99" height="49" fill="rgb(128,214,255)" stroke="black" rx="10" ry="10"/>
<ellipse cx="32" cy="52" rx="5" ry="5" fill="black" stroke="black"/>
<text x="48" y="73" font-family="Arial" font-size="10.67"  fill="black">
RootReady
</text>
</g>
<line x1="30" y1="94" x2="30" y2="97" fill="none"  stroke="black"/>
<line x1="34" y1="101" x2="45" y2="101" fill="none"  stroke="black"/>
<polygon fill="rgb(255,255,255)" stroke="black"
points="41,99 41,103 45,101 "/>
<g id="StateMachineConnection1__40E5C8797B5986C4" class="TStateMachineConnection" >
<line x1="73" y1="93" x2="73" y2="253" fill="none"  stroke="gray" stroke-dasharray="4, 2" />
<polygon fill="white" stroke="black"
points="80,108 66,108 73,93 "/>
<polygon fill="black" stroke="black"
points="66,238 80,238 73,253 "/>
<text x="56" y="184" font-family="Arial" font-size="10.67"  font-weight="bold" fill="black">
in.test
</text>
</g>
<polygon fill="white" stroke="gray"
points="12,64 20,64 20,72 12,72 "/>
<line x1="14" y1="68" x2="19" y2="68" fill="none"  stroke="black"/>
<g id="OnEntryStateShape1__40E5C8795E15F5EC" class="TOnEntryStateShape" >
<ellipse cx="54" cy="101" rx="7" ry="7" fill="rgb(0,170,0)" stroke="black"/>
<polygon fill="white" stroke="rgb(32,32,32)"
points="64,94 109,94 109,109 64,109 "/>
<text x="69" y="106" font-family="Arial" font-size="10.67"  fill="black">
onentry
</text>
</g>
<line x1="54" y1="110" x2="54" y2="117" fill="none"  stroke="black"/>
<line x1="54" y1="117" x2="67" y2="117" fill="none"  stroke="black"/>
<polygon fill="rgb(255,255,255)" stroke="black"
points="63,115 63,119 67,117 "/>
<line x1="54" y1="117" x2="54" y2="133" fill="none"  stroke="black"/>
<line x1="54" y1="133" x2="67" y2="133" fill="none"  stroke="black"/>
<polygon fill="rgb(255,255,255)" stroke="black"
points="63,131 63,135 67,133 "/>
<polygon fill="white" stroke="gray"
points="26,97 34,97 34,105 26,105 "/>
<line x1="28" y1="101" x2="33" y2="101" fill="none"  stroke="black"/>
<g id="SendShape1__40E5C8795E7CECCB" class="TSendShape" >
<polygon fill="rgb(240,240,240)" stroke="rgb(174,174,174)"
points="69,113 81,113 81,122 69,122 "/>
<line x1="69" y1="113" x2="75" y2="118" fill="none"  stroke="rgb(174,174,174)"/>
<line x1="81" y1="113" x2="75" y2="118" fill="none"  stroke="rgb(174,174,174)"/>
<line x1="70" y1="121" x2="74" y2="118" fill="none"  stroke="rgb(200,200,200)"/>
<line x1="80" y1="121" x2="76" y2="118" fill="none"  stroke="rgb(200,200,200)"/>
<polygon fill="rgb(147,204,39)" stroke="rgb(105,150,0)"
points="76,121 81,121 81,119 84,122 81,125 81,123 76,123 "/>
<polygon fill="white" stroke="rgb(32,32,32)"
points="88,110 199,110 199,125 88,125 "/>
<text x="93" y="122" font-family="Arial" font-size="10.67"  fill="black">
send&#32;&#123;out.root.ready&#125;
</text>
</g>
<g id="ScriptShape1__40E5C879BD3C6DFE" class="TScriptShape" >
<polygon fill="rgb(221,238,245)" stroke="rgb(4,121,179)"
points="79,140 79,137 70,137 69,138 69,139 70,140 "/>
<polygon fill="rgb(221,238,245)" stroke="rgb(4,121,179)"
points="71,137 71,128 72,127 81,127 81,139 80,140 80,140 79,140 79,137 "/>
<polygon fill="rgb(221,238,245)" stroke="rgb(4,121,179)"
points="81,127 82,127 83,128 83,129 82,130 81,130 "/>
<polygon fill="white" stroke="rgb(32,32,32)"
points="88,126 236,126 236,141 88,141 "/>
<text x="93" y="138" font-family="Arial" font-size="10.67"  fill="black">
script&#32;&#123;testRoot(&quot;Ready&#32;...&quot;);&#125;
</text>
</g>
<g id="RootInvoke" class="TStateShape" >
<rect  x="23" y="253"  width="99" height="49" fill="rgb(128,214,255)" stroke="black" rx="10" ry="10"/>
<text x="48" y="283" font-family="Arial" font-size="10.67"  fill="black">
RootInvoke
</text>
</g>
<line x1="30" y1="304" x2="30" y2="311" fill="none"  stroke="black"/>
<line x1="30" y1="311" x2="45" y2="311" fill="none"  stroke="black"/>
<polygon fill="rgb(255,255,255)" stroke="black"
points="41,309 41,313 45,311 "/>
<polygon fill="white" stroke="gray"
points="12,274 20,274 20,282 12,282 "/>
<line x1="14" y1="278" x2="19" y2="278" fill="none"  stroke="black"/>
<g id="InvokeShape1__40E5C87964637B31" class="TInvokeShape" >
<polygon fill="rgb(219,222,216)" stroke="gray"
points="51,305 52,304 61,304 62,305 62,311 61,312 52,312 51,311 "/>
<polygon fill="rgb(219,222,216)" stroke="gray"
points="51,315 51,314 52,313 61,313 62,314 62,315 "/>
<polygon fill="rgb(210,189,154)" stroke="rgb(144,87,0)"
points="53,306 60,306 60,310 53,310 "/>
<polygon fill="rgb(219,222,216)" stroke="gray"
points="47,309 48,308 57,308 58,309 58,315 57,316 48,316 47,315 "/>
<polygon fill="rgb(219,222,216)" stroke="gray"
points="47,319 47,318 48,317 57,317 58,318 58,319 "/>
<polygon fill="rgb(210,189,154)" stroke="rgb(144,87,0)"
points="49,310 56,310 56,314 49,314 "/>
<polygon fill="white" stroke="rgb(32,32,32)"
points="66,304 260,304 260,319 66,319 "/>
<text x="71" y="316" font-family="Arial" font-size="10.67"  fill="black">
invoke&#32;&#123;ChildMachine.scxml=ID_CHILD&#125;
</text>
</g>
</g>
<polyline fill="none"  stroke="rgb(160,160,160)"
points="0,335 0,0 285,0 "/>
<polyline fill="none"  stroke="white"
points="285,0 285,335 -1,335 "/>
<polyline fill="none"  stroke="rgb(160,160,160)"
points="1,334 1,1 284,1 "/>
<polyline fill="none"  stroke="white"
points="284,1 284,334 0,334 "/>
</svg>
