<?xml version="1.0" encoding="UTF-8" standalone="no"?>
<!-- Created with Inkscape (http://www.inkscape.org/) -->

<svg
   xmlns:dc="http://purl.org/dc/elements/1.1/"
   xmlns:cc="http://creativecommons.org/ns#"
   xmlns:rdf="http://www.w3.org/1999/02/22-rdf-syntax-ns#"
   xmlns:svg="http://www.w3.org/2000/svg"
   xmlns="http://www.w3.org/2000/svg"
   xmlns:sodipodi="http://sodipodi.sourceforge.net/DTD/sodipodi-0.dtd"
   xmlns:inkscape="http://www.inkscape.org/namespaces/inkscape"
   version="1.1"
   id="svg4485"
   width="600"
   height="600"
   viewBox="0 0 600 600"
   sodipodi:docname="dininig_philosophers.svg"
   inkscape:version="0.92.0 r15299">
  <metadata
     id="metadata4491">
    <rdf:RDF>
      <cc:Work
         rdf:about="">
        <dc:format>image/svg+xml</dc:format>
        <dc:type
           rdf:resource="http://purl.org/dc/dcmitype/StillImage" />
        <dc:title />
      </cc:Work>
    </rdf:RDF>
  </metadata>
  <defs
     id="defs4489" />
  <sodipodi:namedview
     pagecolor="#ffffff"
     bordercolor="#666666"
     borderopacity="1"
     objecttolerance="10"
     gridtolerance="10"
     guidetolerance="10"
     inkscape:pageopacity="0"
     inkscape:pageshadow="2"
     inkscape:window-width="1600"
     inkscape:window-height="1138"
     id="namedview4487"
     showgrid="false"
     inkscape:zoom="1.4142136"
     inkscape:cx="154.92721"
     inkscape:cy="253.27018"
     inkscape:window-x="-8"
     inkscape:window-y="-8"
     inkscape:window-maximized="1"
     inkscape:current-layer="svg4485" />
  <g
     id="philosophers">
    <g
       id="philosophers_static">
      <path
         style="fill:#000000"
         d="m 467.47159,259.67239 2.16498,-3.28209 c 3.66435,-5.55512 7.36977,-5.53674 9.47608,-3.43043 0.629,0.629 4.29095,1.17245 8.13767,1.20768 5.74057,1.46561 5.13455,1.4057 7.06961,2.19112 1.6257,0.48382 7.33277,3.32477 22.53163,8.35997 11.96193,3.96284 24.72384,8.64346 28.3598,10.40138 9.61402,4.6482 9.75434,6.01009 3.93548,38.19621 -3.36192,18.59596 -3.52356,19.75634 -3.02006,21.6817 0.72511,2.77283 -1.65993,10.70195 -4.75807,15.8183 -1.49871,2.475 -5.88181,10.575 -9.74024,18 -9.86296,18.97987 -12.13301,22.96626 -15.5896,27.37648 l -3.03827,3.87648 -6.63963,-0.61709 c -3.6518,-0.3394 -7.95641,-1.04009 -9.5658,-1.55709 -1.60939,-0.517 -10.35116,-3.25168 -19.42616,-6.07707 -9.075,-2.8254 -17.68861,-5.59097 -19.14136,-6.14572 -9.61541,-2.42414 -4.58221,-0.93199 -13.20018,-3.91815 -2.28715,-1.05194 -4.94596,-2.36829 -5.90846,-2.92523 -0.9625,-0.55694 -2.50982,-1.38169 -3.43849,-1.8328 -0.93956,-0.45639 -2.41212,-3.43272 -3.31995,-6.71027 l 0.007,-1.40714 0.23539,-1.55329 c 0.30246,-1.91137 4.19095,-9.22076 5.56356,-9.73887 2.17905,-0.8225 3.56118,-0.69575 6.25,0.57317 1.89874,0.89606 5.02726,1.59681 6.95226,1.55721 1.925,-0.0396 5.525,0.38509 8,0.94375 2.475,0.55865 9.86728,2.17699 16.42729,3.59631 6.56002,1.41932 12.14752,2.80079 12.41667,3.06995 0.26916,0.26915 1.91595,0.48937 3.65954,0.48937 3.10749,0 3.23476,-0.18742 6.43801,-9.48035 2.80779,-8.14568 3.11232,-9.92646 2.16317,-12.64922 -0.60735,-1.74288 -1.10445,-5.0922 -1.10445,-7.44293 0,-3.15254 -0.68768,-5.09131 -2.62074,-7.38862 -2.52493,-3.00071 -2.55582,-3.1863 -0.84501,-5.07673 0.97665,-1.07918 2.71848,-1.9723 3.87074,-1.9847 1.15225,-0.0124 4.40841,-2.14991 7.23589,-4.75 4.51041,-4.14767 5.46087,-5.74681 7.75,-13.0392 1.43502,-4.57146 2.60912,-9.19914 2.60912,-10.28373 0,-1.47952 -1.87404,-2.83762 -7.50423,-5.43825 -4.12732,-1.90645 -7.77693,-3.46627 -8.11023,-3.46627 -0.3333,0 -6.63218,-2.925 -13.9975,-6.5 -7.36532,-3.575 -13.82545,-6.5 -14.35584,-6.5 -2.55817,0 -7.4697,-3.56503 -8.0322,-5.18521 -0.32737,-0.94293 -0.36011,-2.21004 0.29561,-5.05379 M 217.01814,431.30524 c -15.38239,-3.75058 -33.30558,-14.80144 -50.14913,-27.99129 -10.28081,-8.0507 -27.80251,-25.2911 -33.5361,-32.99772 -4.04457,-5.43637 -4.49069,-5.76516 -4.74911,-3.5 -0.15686,1.375 -0.98158,4.4125 -1.83271,6.75 -1.20733,3.31579 -2.05193,4.25 -3.84234,4.25 -1.26217,0 -2.84598,0.66407 -3.51958,1.47571 -0.6736,0.81164 -5.7912,2.90275 -11.37245,4.64692 -5.58124,1.74417 -12.847708,4.0343 -16.147708,5.08919 -21.04649,6.72777 -32.78766,9.93945 -38.29041,10.47394 -5.92828,0.57582 -6.45947,0.44902 -9.22715,-2.20259 -1.61522,-1.54747 -5.02121,-6.90174 -7.56887,-11.89838 -2.54766,-4.99663 -4.099408,-7.77142 -6.050872,-11.88198 -1.471092,-3.17709 -2.875685,-6.31201 -4.631198,-9.92486 -1.95246,-4.00287 -4.98905,-9.07795 -6.74798,-11.27795 -4.41061,-5.51662 -5.17226,-7.73183 -6.01693,-17.5 -0.40426,-4.675 -1.48651,-13.45 -2.40499,-19.5 -0.91848,-6.05 -2.14281,-14.15 -2.72073,-18 -1.356903,-9.0395 -1.343919,-12.46646 0.063,-16.61729 0.97424,-2.87438 2.1571,-3.81322 7.87135,-6.24759 9.91595,-4.22436 10.24767,-4.34979 16.22482,-6.13512 3.025,-0.90355 6.4,-2.02855 7.5,-2.5 1.1,-0.47145 4.475,-1.59645 7.5,-2.5 3.025,-0.90355 6.4,-2.02338 7.5,-2.48852 4.8947,-2.06975 20.72734,-7.01148 22.46383,-7.01148 1.05495,0 2.19621,-0.45 2.53613,-1 1.5569,-2.51911 5.98801,-0.92487 10.20951,3.67323 5.54759,6.04246 5.93644,10.76401 1.21376,14.73788 -1.69219,1.42389 -4.14064,2.58889 -5.44098,2.58889 -1.30034,0 -2.6371,0.44147 -2.97057,0.98104 -0.54995,0.88984 -4.2742,2.76166 -17.51172,8.80142 -14.54853,6.63793 -18.73114,8.51153 -20.75,9.29494 -2.79115,1.08309 -2.81423,2.79411 -0.17083,12.66144 1.92275,7.17726 2.55763,8.22593 8.43887,13.93884 4.14169,4.02315 7.3401,6.29009 9.17083,6.5 3.95449,0.45342 4.47909,4.82702 0.86316,7.19627 -1.96576,1.28801 -2.55203,2.51203 -2.55203,5.32811 0,2.01077 -0.52431,5.10591 -1.16514,6.87809 -1.01338,2.80244 -0.74777,4.53876 2.03917,13.33022 3.47672,10.96738 3.13601,10.68335 10.12597,8.4415 0.825,-0.2646 4.875,-1.1675 9,-2.00644 4.125,-0.83894 9.075,-1.90971 11,-2.37949 9.397048,-2.29327 18.363078,-3.85958 19.185138,-3.35152 0.50347,0.31116 2.48887,-0.18091 4.412,-1.09349 2.23597,-1.06104 4.56131,-1.4254 6.44973,-1.01063 1.62422,0.35673 2.95313,0.41968 2.95313,0.13987 0,-0.27981 -1.71158,-3.12806 -3.80352,-6.32946 -3.33829,-5.10875 -5.10913,-8.74061 -10.63946,-21.82071 -6.15651,-14.56112 -10.257058,-29.09141 -13.527208,-47.93366 -1.35144,-7.78684 -1.32352,-39.09939 0.0423,-47.48443 4.400828,-27.01684 15.818368,-57.67146 28.285738,-75.94352 7.02443,-10.29493 8.8771,-14.19193 5.41629,-11.39286 -0.7008,0.56679 -3.52417,1.32588 -6.27417,1.68686 l -5,0.65633 -3.5,-4.79436 c -8.82165,-11.37147 -15.00082,-20.49667 -21.922218,-30.01868 -7.12109,-9.77662 -14.82567,-21.070186 -17.1213,-25.096816 l -4.17386,-7.32113 1.68009,-4.39926 c 1.25925,-3.29729 6.07228,-8.85287 19.2145,-22.178866 9.643918,-9.778782 19.087728,-19.439555 20.986238,-21.468385 2.11766,-2.26301 5.40522,-4.337587 8.50565,-5.367385 2.77959,-0.923232 13.91647,-6.098717 24.74862,-11.501077 13.38877,-6.677434 21.28724,-10.033715 24.66821,-10.482217 l 4.97339,-0.659743 5.47034,6.029193 c 3.00872,3.316056 11.09537,13.684194 17.97037,23.040306 9.1837,12.381614 14.33555,20.776885 23.14912,32.809384 1.24102,1.68394 1.39478,6.89666 0.11125,8.63964 -0.47819,0.64938 -1.3896,2.40027 -2.02534,3.89088 -1.11511,2.61461 -1.06964,2.67742 1.28908,1.78063 8.21681,-3.12402 23.10987,-6.02729 38.79878,-7.56347 16.88754,-1.65355 18.78002,-1.65521 36.06061,-0.0317 16.42485,1.54312 30.61388,4.27606 38.87016,7.48677 l 2.75366,1.07084 -1.55582,-3.72664 c -0.8557,-2.04965 -1.98235,-4.15414 -2.50366,-4.67664 -1.58962,-1.59325 -1.0606,-5.13798 1.05216,-7.05 1.1,-0.99549 2,-2.26245 2,-2.81548 0,-0.85274 9.83866,-14.990093 13.69912,-19.68452 0.67844,-0.825 5.58873,-7.35 10.91176,-14.5 5.32303,-7.15 11.90771,-15.5875 14.63262,-18.75 7.94039,-9.21552 6.83821,-9.49665 49.2565,12.563685 3.85,2.002257 8.7256,3.90332 10.83466,4.224586 2.80128,0.426709 4.87802,1.712932 7.70636,4.772924 2.12944,2.303843 11.45022,11.93698 20.71283,21.406972 15.29087,15.633223 21.24615,23.139703 21.24615,26.780273 0,2.58923 -7.15431,13.87314 -21.09094,33.265016 -7.80139,10.8551 -15.6974,21.61228 -17.5467,23.90485 -1.8493,2.29256 -3.36236,4.57662 -3.36236,5.07568 0,0.49907 -1.07831,1.92041 -2.39624,3.15854 -2.08048,1.95451 -3.03582,2.15851 -7.25,1.54817 -2.66957,-0.38664 -5.42713,-1.16034 -6.12793,-1.71934 -2.9695,-2.36866 -1.72815,0.4103 4.28654,9.59609 10.69443,16.33282 20.88771,38.55645 25.1218,56.67256 2.94226,12.58882 4.55042,22.39575 4.79561,32.96011 l 0.38397,16.54417 c -0.22828,3.5214 -0.82727,9.63132 -1.20254,15.90817 -0.83136,13.90571 -2.60364,22.82938 -7.26645,36.58755 -3.26627,9.63748 -11.33431,26.93694 -17.7223,38 -1.963,3.39963 -6.53968,10.63774 -7.10703,11.52474 l -4.29459,6.15006 c -6.71118,9.61073 -27.6797,28.82786 -44.22084,40.10396 -15.14757,10.3261 -25.84745,15.89971 -39.78434,20.72379 l -8.28433,2.86752 6.52553,3.56496 c 5.03381,2.75003 6.52754,4.07931 6.53433,5.81497 0.005,1.2375 -0.44119,2.25 -0.99119,2.25 -0.55,0 -1,0.675 -1,1.5 0,0.825 0.45,1.5 1,1.5 1.31266,0 1.36191,59.36476 0.0512,61.76357 -0.52182,0.95504 -1.22407,3.87182 -1.56057,6.48174 -0.9114,7.069 -4.57447,9.45085 -18.92051,12.30275 -6.24886,1.24223 -16.471,2.81759 -22.71586,3.50079 -6.24487,0.6832 -13.09838,1.8517 -15.23003,2.59667 -4.55728,1.59267 -12.3761,1.72919 -14.89971,0.26014 h 4e-5 c -0.9765,-0.56843 -7.2765,-1.68818 -14,-2.48832 -19.10832,-2.27402 -33.79526,-5.38482 -38.94483,-8.24881 -5.44115,-3.02614 -5.92571,-6.10745 -5.81783,-36.99502 0.26165,-21.31714 -0.012,-27.27137 0.0381,-41.08853 l 0.92808,-6.42433 1.93229,-2.02808 2.99457,-1.65788 3.63173,-0.93324 3.47444,-0.0845 c 2.46229,0.55275 4.72885,1.148 5.6339,2.14808 1.25908,1.39127 1.93427,3.67993 1.99136,6.75 0.0475,2.55475 0.36417,5.32001 0.7037,6.14501 0.66821,1.62359 2.09758,13.81461 3.74,31.89833 0.56938,6.26908 1.2721,11.78158 1.5616,12.25 0.2895,0.46842 5.34968,0.85167 11.24484,0.85167 8.41127,0 11.23378,-0.36093 13.1124,-1.67677 1.31666,-0.92222 4.00428,-2.22943 5.97251,-2.9049 2.09793,-0.71999 4.23288,-2.4053 5.15995,-4.07323 2.24914,-4.0465 5.9435,-3.8677 7.91863,0.38326 0.825,1.77559 2.175,3.2404 3,3.25512 0.825,0.0147 3.3,1.13542 5.5,2.49043 3.61832,2.22859 5.07348,2.46665 15.25,2.49488 6.1875,0.0172 11.251,-0.30629 11.25223,-0.71879 0.002,-0.66244 1.77893,-18.61978 3.53795,-35.75319 0.33862,-3.29825 1.02211,-6.89681 1.51888,-7.99681 0.49677,-1.1 1.0242,-4.46407 1.17208,-7.4757 0.23088,-4.70222 0.62201,-5.65363 2.76886,-6.73526 2.18441,-1.10056 2.2467,-1.26142 0.4934,-1.2743 -1.10363,-0.008 -3.57863,0.44552 -5.5,1.00805 -11.34839,3.32258 -31.07583,5.98702 -43.9934,5.94187 -11.37748,-0.0398 -33.67643,-3.10634 -42.9934,-5.91249 -2.89095,-0.87072 -4.29968,-1.17734 -7.65486,-2.14213 z m 74.85087,98.66354 c 9.75621,-6.53495 11.37739,-22.22201 3.20227,-30.98622 -8.10676,-8.69093 -24.05602,-8.19386 -30.95793,0.96483 -6.09467,8.08751 -6.52054,16.99589 -1.19949,25.09095 5.64735,8.59148 19.8731,11.01381 28.95515,4.93044 z m -30.5,-0.59539 c 0,-0.24356 -0.95298,-2.05802 -2.11773,-4.03213 -2.90038,-4.91577 -3.64277,-14.76914 -1.49928,-19.89923 0.88936,-2.12853 1.61701,-4.30636 1.61701,-4.83964 0,-1.33373 -28.487,-0.40583 -33.12656,1.07903 -5.89715,1.88734 -8.87344,5.59323 -8.87344,11.04867 0,8.55513 3.26802,10.90781 19.50382,14.04099 5.98672,1.15532 11.09747,2.31311 11.35723,2.57287 0.59825,0.59825 13.13895,0.62635 13.13895,0.0294 z m 60.34434,-2.12119 c 18.4052,-3.58717 19.85993,-4.53154 21.01049,-13.63954 0.50716,-4.01473 0.24117,-5.12311 -1.81628,-7.56825 -3.69062,-4.38605 -11.83131,-6.22818 -27.52345,-6.22818 -7.15831,0 -13.0151,0.17004 -13.0151,0.37788 0,0.20783 0.675,1.99337 1.5,3.96788 2.88203,6.89767 1.85696,14.65721 -3.28995,24.90424 -0.77484,1.54263 10.41284,0.66537 23.13429,-1.81403 z m 22.64035,-50.61454 c 0.0177,-28.45808 0.20946,-27.82143 -8.3818,-27.82143 -6.54738,0 -9.34524,2.5086 -10.10094,9.0566 -0.83153,7.2051 -3.50195,34.84887 -3.50195,36.25164 0,1.40101 3.59138,2.84058 11.66733,4.67673 2.84203,0.64617 5.9589,2.04952 6.92637,3.11857 1.34933,1.49099 1.94733,1.64707 2.56736,0.67009 0.44457,-0.70049 0.81521,-12.37899 0.82363,-25.9522 z m -120.98469,23.15773 c 1.375,-0.44895 5.0875,-1.58952 8.25,-2.53461 4.63584,-1.38537 5.75208,-2.12778 5.76072,-3.83144 0.0141,-2.77421 -3.06633,-35.46573 -3.6122,-38.33543 -0.68221,-3.58644 -4.3343,-6.27768 -8.51899,-6.27768 -2.9905,0 -4.15926,0.58411 -5.81144,2.90437 -1.95093,2.73984 -2.06809,4.24714 -2.06809,26.60699 0,22.17745 0.11261,23.65698 1.75,22.99335 0.9625,-0.3901 2.875,-1.0766 4.25,-1.52555 z m 58,-11.97916 c 0,-0.55 -0.19844,-1 -0.44098,-1 -0.24254,0 -0.7191,0.45 -1.05902,1 -0.33992,0.55 -0.14148,1 0.44098,1 0.58246,0 1.05902,-0.45 1.05902,-1 z m -49.5,-44.5 c 0,-3.83136 -11.05561,-4.91482 -13.71309,-1.72613 -0.44181,0.53013 -0.48919,2.53268 -0.42558,3.01282 0.26146,1.97325 6.60555,1.64242 8.88867,1.51754 4.14425,-0.22667 5.25,0.29058 5.25,-2.80423 z m 110.25,1.95057 c 2.56895,-0.79699 1.10438,-3.12279 -3.32,-5.27232 -3.95562,-1.92178 -4.9179,-2.0494 -7.15776,-0.94926 -3.17978,1.56179 -4.78557,3.99092 -3.99688,6.0462 0.47829,1.2464 1.82093,1.45144 6.90915,1.0551 3.47352,-0.27056 6.87799,-0.66644 7.56549,-0.87972 z m -36.75,-7.46878 c 22.20643,-4.55254 40.18762,-10.06394 53.5,-16.39823 20.45932,-9.73494 53.74762,-36.80168 65.83888,-53.53364 10.63206,-15.98598 6.43937,-9.6772 7.96769,-12.23742 1.12981,-1.53409 12.03292,-21.53387 14.39334,-26.8125 8.30282,-18.56769 12.60427,-35.9686 13.47223,-54.5 0.39631,-6.35175 0.60439,-7.72962 0.69077,-11.17113 l -0.0564,-7.35395 c -0.54031,-7.59487 -2.01279,-30.37291 -3.74491,-36.97492 -0.50504,-1.925 -1.68956,-6.65 -2.63225,-10.5 -0.94269,-3.85 -2.02245,-7.45 -2.39947,-8 -0.37702,-0.55 -1.51651,-3.25 -2.53219,-6 -8.09018,-21.90436 -23.78579,-46.93423 -38.92459,-62.07323 -10.9816,-10.98173 -26.78863,-23.56956 -38.5731,-30.71743 -9.85824,-5.979506 -33.38137,-16.349776 -42.92441,-18.923406 -33.43674,-9.01743 -81.56544,-7.77651 -107.95748,2.78349 -1.99689,0.8086 -3.15402,1.08413 -8.39099,3.43058 -1.4148,0.68431 -25.61119,12.215366 -32.06769,16.391946 -5.12741,3.31683 -23.11292,17.92162 -29.49857,23.95376 -1.83653,1.73486 -5.5916,5.73953 -8.3446,8.89928 l -5.00546,5.74498 c -6.17085,8.8699 -6.03231,8.68659 -10.76213,15.42279 -6.62067,9.42036 -9.84378,15.74486 -15.07832,29.58724 -1.76786,4.675 -3.826,9.85 -4.57363,11.5 -1.67132,3.68853 -4.77447,15.75382 -7.41331,28.82351 -2.796708,13.85163 -2.801188,41.96531 -0.009,56.7336 3.57762,18.92278 6.11057,27.49301 12.54407,42.44289 0.71006,1.65 2.45832,5.79759 3.88502,9.21686 5.72688,13.72519 22.84023,37.52444 34.86499,48.48616 25.54648,23.28808 46.54855,36.55592 68.04585,42.98724 l 9.9105,2.96492 c 1.62364,0.53745 3.66491,1.02136 4.964,1.30335 5.00344,1.30602 17.80102,4.20397 28.3112,5.59019 7.94982,1.04853 35.56246,0.35534 42.5,-1.06693 z m -40.37379,-12.46977 c -11.81133,-5.83537 -16.83091,-12.17944 -19.12546,-24.17196 -2.69379,-14.07915 1.49039,-26.39969 11.75378,-34.60965 7.33437,-5.86696 12.65562,-7.73041 22.07485,-7.73041 7.25403,0 9.12971,0.38904 14.27722,2.96128 3.25932,1.6287 8.26603,5.1162 11.12602,7.75 4.23662,3.90155 5.58437,5.99292 7.27484,11.28872 3.51421,11.0091 3.58442,14.08373 0.53567,23.45598 -3.59956,11.06552 -7.16497,15.15524 -17.8092,20.42813 -7.54405,3.73715 -8.99531,4.11166 -15.77127,4.0699 -6.41605,-0.0395 -8.42668,-0.52227 -14.33645,-3.44199 z m 21.10381,-0.12191 c 7.11281,-2.06775 16.58857,-7.62442 19.15991,-11.23553 6.4806,-9.10117 8.19191,-22.23527 4.18958,-32.15458 -2.6274,-6.51172 -6.57347,-10.94655 -14.07951,-15.8234 -5.01992,-3.26156 -6.26296,-3.61044 -14.24075,-3.99692 -7.91064,-0.38322 -9.25694,-0.17088 -14.17616,2.23586 -5.79998,2.83767 -13.67527,9.92587 -15.97432,14.37779 -4.06541,7.87232 -3.40939,23.68979 1.32537,31.95667 2.66538,3.80668 7.24807,9.36371 12.97177,11.67326 0.87675,0.31624 3.84409,1.4405 6.59409,2.49836 3.27726,1.26068 4.8894,1.34235 6.90816,1.35642 1.84322,0.0129 4.06953,0.0576 7.32186,-0.88793 z M 183.86901,393.20315 c -1.1,-0.85221 -2.86648,-2.17308 -3.92551,-2.93528 -2.57592,-1.85391 -1.92565,-3.13893 9.08426,-17.95164 4.90561,-6.6 11.30072,-15.22835 14.21134,-19.17412 2.91063,-3.94577 5.96317,-7.43165 6.78342,-7.74642 1.85123,-0.71038 4.1427,0.48438 7.20126,3.75469 2.70821,2.89571 3.12121,1.92257 -6.22415,14.66585 -18.4729,25.18953 -22.97611,30.99758 -24.01085,30.9682 -0.61587,-0.0175 -2.01977,-0.72907 -3.11977,-1.58128 z m 17.62209,-21.44968 c 7.56005,-10.14048 13.77533,-19.00939 13.81173,-19.70868 0.0631,-1.21146 -4.60531,-4.00415 -5.25063,-3.141 -7.91712,10.58959 -25.74343,35.04353 -26.7704,36.72334 -1.2668,2.07212 -1.2103,2.46101 0.54677,3.76348 1.07776,0.79892 2.39999,1.30577 2.93827,1.12634 0.53829,-0.17943 7.16421,-8.62299 14.72426,-18.76348 z m 168.7367,20.31276 c -3.08562,-3.3734 -27.09216,-35.93242 -28.65746,-38.86685 -0.9622,-1.80381 -0.72703,-2.47516 1.59028,-4.53989 1.49571,-1.33268 3.23886,-2.74406 3.87368,-3.1364 2.81028,-1.73684 3.96686,-0.38948 29.64369,34.53347 3.13006,4.25719 5.69102,7.94807 5.69102,8.20196 0,0.47907 -8.56784,6.55771 -9.24308,6.55771 -0.21051,0 -1.51467,-1.2375 -2.89813,-2.75 z m 6.00841,-3 c 2.08672,-1.74829 2.08318,-1.75745 -3.63922,-9.39339 -3.15039,-4.20386 -9.55298,-12.86538 -14.22798,-19.24782 -4.675,-6.38243 -8.99276,-11.60541 -9.59501,-11.60661 -0.60226,-10e-4 -1.85831,0.84125 -2.79122,1.87211 -1.60339,1.77172 -1.56721,2.03165 0.66111,4.75 1.29653,1.58164 7.65499,10.18821 14.12992,19.12571 6.47492,8.9375 12.13282,16.25 12.57311,16.25 0.44029,0 1.74047,-0.7875 2.88929,-1.75 z m -235.3672,-55.50346 c -4.52765,-1.13274 -9.40641,-4.28269 -11.96967,-5.90897 -0.30924,-0.1962 -2.09815,-2.2803 -4.01438,-4.25349 -1.91623,-1.97319 -4.61623,-5.82186 -6,-8.5526 -2.2057,-4.35274 -2.51595,-6.24031 -2.51595,-15.30706 0,-10.07742 0.0912,-10.49412 3.56461,-16.28325 4.1461,-6.91034 8.7547,-11.99368 12.78786,-14.10516 9.49273,-4.96972 20.9145,-5.65035 30.66898,-1.8276 7.26603,2.84753 11.43208,6.46665 16.98239,14.75288 6.81721,10.17762 7.32574,20.40023 1.63386,32.84396 -2.90931,6.3604 -12.90372,16.45951 -17.25985,17.44066 -1.58282,0.35651 -4.45285,1.05201 -6.37785,1.54556 -4.37691,1.12221 -12.25649,0.9669 -17.5,-0.34493 z m 15.60331,-2.4329 c 5.343,-0.98694 4.96552,-0.87572 8.17558,-2.31364 6.14903,-2.47487 13.34269,-12.33439 15.72416,-17.5 3.27322,-7.09984 3.31111,-16.34601 0.0938,-22.88214 -3.82486,-7.77037 -11.2211,-16.00004 -15.70826,-17.47833 -11.91569,-3.92563 -13.38969,-4.11048 -20.19366,-2.53254 -12.05551,2.79586 -16.82928,6.60126 -23.14429,18.44943 -4.93583,9.26058 -4.09451,19.95543 2.415,30.69935 4.32276,5.61301 5.41313,7.33818 11.7803,11.3538 3.19951,1.25497 9.26968,2.50962 12.8574,2.77281 0.88182,0.0647 4.48182,-0.19124 8,-0.56874 z m 243.31005,2.2983 c -9.34879,-2.04364 -16.75951,-8.34676 -21.54331,-18.32345 -5.56696,-11.60998 -5.49342,-20.92561 0.24638,-31.21133 6.42489,-11.51339 8.61766,-13.41544 19.76993,-17.14877 9.19895,-3.07943 19.9175,-2.1839 28.79265,2.40562 4.41344,2.28228 12.14283,11.08581 14.86305,16.92856 3.49154,7.49945 3.48427,19.99095 -0.016,27.50942 -2.4323,5.22447 -11.16974,15.43177 -14.93414,17.44641 -6.29876,3.371 -17.99502,4.40105 -27.17855,2.39354 z m 23.75075,-4.19967 c 4.98499,-2.57248 12.87494,-11.2517 15.38212,-16.92089 1.91935,-4.33999 2.45377,-7.24293 2.45377,-13.32872 0,-7.14085 -0.29298,-8.26863 -3.56461,-13.72149 -6.58779,-10.97993 -10.37283,-13.81545 -22.70881,-17.01202 -5.68088,-1.47206 -6.32659,-1.44247 -13.10098,0.6004 -11.67557,3.52086 -13.47068,4.70377 -18.04145,11.88867 -5.73657,9.01744 -6.70514,15.23117 -6.55746,21.64504 0.96905,4.78861 2.08367,6.85561 3.90188,10.76373 2.30881,4.96265 5.63836,8.72661 8.09659,10.67203 1.45003,1.14078 7.83147,6.30864 12.47484,7.13347 5.49917,0.97685 18.42687,-0.0497 21.66411,-1.72022 z M 153.86901,223.38139 c -8.8,-2.93102 -19.9375,-6.5733 -24.75,-8.09395 -6.24433,-1.97308 -8.74371,-3.22391 -8.72804,-4.36801 0.0304,-2.22088 3.70175,-10.11313 4.67915,-10.05877 0.43939,0.0244 11.82389,3.73694 25.29889,8.25 l 24.5,8.20557 0.30149,4.12708 c 0.30362,4.15626 -1.54349,7.43574 -4.12292,7.32007 -0.64821,-0.0291 -8.37857,-2.45096 -17.17857,-5.38199 z m 18.1163,-0.17249 c 0.43395,-1.72901 0.18771,-2.89577 -0.73095,-3.46355 -0.76194,-0.47092 -11.20096,-4.1162 -23.19782,-8.10061 -18.30573,-6.07973 -21.96073,-7.01 -22.73469,-5.78645 -2.51999,3.98388 -1.51523,4.5489 21.79716,12.25744 12.5125,4.13743 23.07893,7.56262 23.48095,7.61155 0.40202,0.0489 1.02543,-1.08435 1.38535,-2.51838 z m 214.55787,4.73614 c -1.54696,-0.98077 -2.62214,-8.11993 -1.46521,-9.72897 0.43507,-0.60509 11.98062,-4.82239 25.65676,-9.37177 26.52253,-8.82275 25.84196,-8.74721 27.28101,-3.02807 0.34597,1.375 1.04711,3.03239 1.55808,3.6831 1.46954,1.87142 -2.35446,3.73187 -18.20481,8.857 -7.975,2.57868 -18.41098,5.98707 -23.19106,7.5742 -9.60033,3.1876 -9.74495,3.21264 -11.63477,2.01451 z m 27.07583,-10.20062 c 12.5125,-4.07869 22.75,-7.89508 22.75,-8.48087 0,-0.58578 -0.63523,-1.93379 -1.41162,-2.99557 -1.36894,-1.87214 -2.07183,-1.71092 -23.25,5.33294 -12.01111,3.99489 -22.46179,7.65431 -23.22373,8.13204 -1.712,1.07342 -0.62509,6.47115 1.17722,5.84618 0.66447,-0.23041 11.44563,-3.75604 23.95813,-7.83472 z m -227.75,-37.80711 c -5.97969,-2.7777 -13.59529,-9.2845 -17.06566,-14.58095 -2.93085,-4.47304 -4.34855,-16.21929 -2.99723,-24.8333 1.8377,-11.71445 7.96232,-19.28671 20.06289,-24.80506 10.19582,-4.6497 18.23409,-4.58041 28.5,0.24569 12.286,5.77576 18.40066,13.64266 19.90287,25.60633 1.16866,9.30724 -0.55117,19.60526 -4.19334,25.10895 -3.26228,4.92965 -11.60821,11.72021 -17.54244,14.27319 -6.93742,2.98457 -19.04966,2.52362 -26.66709,-1.01485 z m 23.78055,-1.1821 c 4.46781,-1.24071 12.94369,-7.89976 17.26274,-13.56241 6.55753,-8.5975 6.73262,-24.40534 0.38138,-34.43425 -4.01458,-6.33924 -6.38768,-8.33145 -14.37393,-12.0669 -9.19228,-4.29957 -16.43461,-4.44658 -25.05131,-0.50853 -3.29969,1.50804 -7.12443,3.50248 -8.49943,4.43209 -1.55382,0.73826 -3.94804,4.07735 -4.11872,3.85007 l -2.56682,3.82026 c -4.35288,6.47849 -5.79034,15.3576 -4.27862,23.82213 1.16694,6.53399 2.57903,9.44088 6.7807,13.95856 2.60957,2.66624 3.92005,3.93334 6.43586,6.0545 1.96163,1.26901 1.30714,1.14239 6.78432,3.62696 5.01043,2.27283 14.9841,2.74585 21.2438,1.00752 z m 137.87198,2.30953 c -5.28152,-1.82145 -16.41888,-11.94828 -19.44584,-17.68147 -2.97629,-5.6372 -3.16564,-25.02101 -0.30142,-30.85638 4.85399,-9.88919 15.08685,-17.48718 26.66917,-19.8021 7.26798,-1.45263 15.87753,0.64295 24.92556,6.06692 10.11756,6.06512 15.27113,15.85374 15.28101,29.02452 0.008,11.21584 -3.70207,19.72251 -11.17754,25.62565 -9.21834,7.27943 -14.6623,9.39561 -23.79154,9.24826 -4.29656,-0.0693 -9.76829,-0.80077 -12.1594,-1.6254 z m 26.43021,-4.61792 c 11.86101,-6.45558 17.83625,-16.04698 17.83625,-28.63059 0,-13.34547 -6.14065,-22.78386 -18.91467,-29.07249 -18.44428,-9.08009 -39.67728,1.50245 -43.97125,21.91529 -1.34195,6.37941 -1.3412,7.93855 0.007,14.34717 0.90162,4.28612 2.53212,8.52681 4.03714,10.5 5.58163,6.01954 12.38688,11.16581 14.49764,12.1823 7.89581,3.11858 19.49503,2.57525 26.508,-1.24168 z M 273.36901,118.31623 V 89.816234 h 6.5 6.5 v 28.499996 28.5 h -6.5 -6.5 z m 9.76717,0.25 -0.26717,-25.249996 h -3 -3 l -0.26717,25.249996 -0.26717,25.25 h 3.53434 3.53434 z M 58.164222,396.17412 c 1.3412,-0.35925 3.15693,-2.30392 4.3684,-4.67859 1.72275,-3.37688 1.96457,-5.12399 1.43058,-10.33601 -0.74642,-7.28549 -7.22003,-28.34329 -8.71332,-28.34329 -0.55787,0 -2.59104,1.20263 -4.51815,2.6725 -4.83593,3.68855 -11.43266,5.22351 -17.61761,4.09936 -2.72279,-0.49488 -5.07747,-0.7585 -5.23264,-0.58582 -0.88717,0.98732 15.02028,32.4325 18.244,36.06396 1.59222,1.79362 7.46208,2.3338 12.03874,1.10789 z m 457.435738,-4.60789 c 6.65137,-10.19427 18.30005,-32.55233 17.41899,-33.43339 -0.26325,-0.26326 -1.3876,0.008 -2.49855,0.60237 -1.11095,0.59456 -4.68035,1.08102 -7.93201,1.08102 -6.11488,0 -10.98168,-1.7191 -14.9185,-5.26967 -1.20951,-1.09085 -2.78451,-1.75399 -3.5,-1.47366 -1.74682,0.68441 -8.57969,21.87966 -9.22137,28.60425 -0.41317,4.32989 -0.0858,6.10078 1.70245,9.20784 2.67343,4.64518 4.76766,5.77478 10.8708,5.86356 4.53564,0.066 4.73899,-0.0645 8.07819,-5.18232 z M 82.369012,388.78909 c 7.425,-2.29549 17.1,-5.28006 21.499998,-6.63238 12.27515,-3.77271 12.5,-3.90389 12.5,-7.29229 0,-3.93259 -3.85454,-11.77689 -6.07187,-12.35673 -1.70246,-0.44521 -4.75845,0.028 -13.928128,2.15652 -5.42297,1.25883 -17.86756,3.98691 -23.81682,5.22107 -2.37425,0.49253 -4.76409,1.17194 -5.31075,1.50979 -0.57857,0.35758 -0.86806,4.4395 -0.69272,9.76772 0.16566,5.03439 -0.10007,9.99287 -0.59052,11.01884 -1.03617,2.16755 -2.65914,2.50306 16.41081,-3.39254 z m 410.242908,1.29411 c -0.57953,-1.66243 -0.68906,-5.92326 -0.26482,-10.30105 0.39794,-4.10626 0.5605,-7.7688 0.36125,-8.13898 -0.19925,-0.37019 -1.81961,-0.95005 -3.60081,-1.28858 -1.78119,-0.33853 -5.03853,-1.03676 -7.23853,-1.55162 -2.2,-0.51486 -7.0375,-1.6225 -10.75,-2.46142 -3.7125,-0.83893 -9.70894,-2.22984 -13.32542,-3.09091 -5.9084,-1.40677 -6.81233,-1.41037 -8.91076,-0.0354 -1.28444,0.84159 -2.86102,3.12301 -3.50353,5.06982 -1.02521,3.10644 -0.90281,3.96903 1.00014,7.04807 2.47502,4.00466 3.95324,4.93809 11.83157,7.47109 4.65543,1.49679 30.10264,9.39202 33.658,10.4427 1.63235,0.48239 1.78594,-0.17166 0.74291,-3.1637 z M 124.59053,369.80758 c 0.62604,-3.63312 0.41971,-4.96906 -1.07978,-6.99135 -2.15281,-2.9034 -4.64816,-3.65452 -6.64242,-1.99944 -1.19895,0.99504 -1.14187,1.84899 0.38986,5.83258 0.98694,2.56677 2.08927,5.48762 2.44961,6.49077 1.22577,3.41242 4.05298,1.48279 4.88273,-3.33256 z m 318.82473,-4.61299 c 1.16514,-3.06456 -0.21155,-5.37836 -3.20008,-5.37836 -2.68857,0 -7.01371,8.16448 -5.08932,11.10147 0.46013,0.70224 0.89555,2.0797 1.85086,2.79657 0.59833,0.44898 2.18115,0.3607 2.4041,0.48157 1.03771,0.56263 3.23337,-6.89429 4.03444,-9.00125 z M 42.369012,356.22428 c 12.55589,-4.36063 18.30396,-16.25631 13.45864,-27.85279 -1.71185,-4.09703 -7.20424,-9.38882 -11.73383,-11.30526 -3.68233,-1.55797 -11.14141,-1.62056 -14.04055,-0.11781 -10.39973,5.39061 -15.0394,14.23456 -12.77528,24.35171 1.70714,7.62829 6.24755,12.07701 15.59102,15.27616 4.14913,1.42063 4.42538,1.4104 9.5,-0.35201 z m 486.120548,0.0494 c 4.79841,-1.69298 10.21572,-6.36367 12.54788,-10.81852 2.3466,-4.48244 1.99092,-12.74278 -0.78736,-18.28606 -3.42552,-6.83465 -8.5563,-10.57848 -15.25917,-11.13434 -6.78291,-0.56249 -11.1002,0.88278 -15.85927,5.30913 -4.78383,4.44941 -6.76263,9.26116 -6.76263,16.44443 0,4.71187 0.50611,6.42649 2.85336,9.66678 3.32476,4.5897 7.01138,7.20811 12.62569,8.96736 5.28204,1.65514 5.53886,1.65155 10.6415,-0.14876 z M 24.918222,316.21088 c 2.64283,-2.01579 4.88955,-2.65771 10.89028,-3.11155 4.15828,-0.31449 7.56051,-0.63543 7.56051,-0.7132 0,-0.0778 -1.5252,-5.43377 -3.38934,-11.90223 -2.25789,-7.83475 -4.60658,-13.59413 -7.03565,-17.25257 -5.2267,-7.87197 -9.58291,-9.1455 -17.57501,-5.13802 l -4.5,2.25644 0.072,7.98323 c 0.0733,8.12853 1.43352,19.9397 3.51463,30.51779 l 1.15614,5.87656 2.98836,-2.98835 c 1.64359,-1.6436 4.48675,-4.13124 6.31813,-5.5281 z m 522.440948,-8.89465 c 3.01618,-20.75293 3.11876,-24.25407 0.79688,-27.19737 -0.51952,-0.65856 -2.94894,-1.96285 -5.39872,-2.89843 -3.71862,-1.42016 -5.10184,-1.507 -8.37645,-0.5259 -3.20794,0.96112 -4.59282,2.26146 -7.60374,7.13954 -3.48496,5.64607 -10.40813,24.25596 -10.40813,27.97764 0,1.30231 0.61393,1.60982 2.49572,1.25009 1.37264,-0.2624 4.98859,-0.16562 8.03543,0.21506 4.88384,0.61019 6.21408,1.31982 11.23544,5.99369 l 5.69571,5.30156 1.18258,-4.62794 c 0.65042,-2.54537 1.70579,-8.22794 2.34528,-12.62794 z M 61.029212,282.18884 c 13.26967,-5.99418 19.44801,-9.30006 20.09637,-10.75309 1.10369,-2.47347 -0.89897,-11.1905 -3.06961,-13.36113 -1.20716,-1.20716 -4.74514,-0.28469 -25.08525,6.54054 -13.02393,4.37025 -23.95599,8.22201 -24.29346,8.55948 -0.33746,0.33747 0.52396,1.50837 1.91428,2.602 1.39033,1.09362 4.27152,4.91706 6.40267,8.49653 2.13114,3.57947 4.0998,6.5222 4.3748,6.53942 0.275,0.0172 9.12209,-3.86348 19.6602,-8.62375 z m 461.384618,2.87739 c 1.77966,-3.1625 4.72317,-7.15923 6.54114,-8.88162 l 3.3054,-3.13162 -21.57298,-7.22856 c -26.91894,-9.01986 -30.45448,-8.95191 -31.8888,0.61285 -0.5276,3.51829 -0.29457,4.87066 1.10597,6.41824 0.97593,1.07839 2.11054,1.96071 2.52134,1.96071 0.41081,0 4.50356,1.75096 9.09501,3.89103 13.34147,6.21842 26.29324,12.0018 27.00264,12.05754 0.36,0.0283 2.11063,-2.53607 3.89028,-5.69857 z M 91.143122,265.20275 c 0.20373,-2.14527 -0.63586,-3.86925 -3.26942,-6.71338 -3.414,-3.68695 -6.25646,-4.45803 -5.77101,-1.56551 0.98904,5.89303 2.87126,12.51376 3.72487,13.10226 1.74295,1.20164 5.02634,-1.77772 5.31556,-4.82337 z m 386.574048,-1.26956 c 0.75221,-1.88171 2.47941,-4.52898 2.18081,-6.17133 -0.30965,-0.30964 -3.70441,-2.40106 -5.04327,-1.78386 -2.1827,1.00619 -6.4857,9.51417 -6.4857,10.29495 0,1.82187 3.82991,4.54578 5.49379,3.90729 0.6953,-0.26681 3.02976,-4.18423 3.85437,-6.24705 z M 440.16901,144.61623 c 1.85041,-1.85041 1.42895,-3.52362 -1.05,-4.16853 -1.2375,-0.32194 -3.68809,-1.94572 -5.44577,-3.60841 -3.77145,-3.56764 -4.85473,-3.73148 -6.33866,-0.95872 -1.61566,3.01888 2.84758,8.66134 7.28715,9.21247 1.786,0.22171 3.49478,0.47513 3.79728,0.56315 0.3025,0.088 1.09,-0.37996 1.75,-1.03996 z m -308.07168,-5.12309 c 0.95093,-2.08705 1.33085,-3.04631 -0.0401,-4.41724 -1.55526,-1.55526 -3.34336,-1.31821 -5.86121,0.56164 -1.71364,1.39903 -7.1428,5.04873 -7.10826,6.01558 0.0345,0.96526 2.15173,3.6537 3.12983,4.07298 1.9578,0.83924 8.94114,-4.19244 9.87972,-6.23296 z m 30.77168,-23.92074 c 7.15,-6.00245 16.04403,-12.7018 19.7645,-14.88744 8.3861,-4.926516 26.16488,-13.868726 27.57362,-13.868726 2.29601,0 2.12208,-2.06101 -0.26574,-3.14898 -7.39671,-7.4967 -13.60506,-12.94305 -20.25555,-20.58865 -5.60075,-6.469305 -12.13246,-13.940974 -14.51492,-16.603713 l -4.33175,-4.841343 -8.24644,6.341343 c -7.03108,5.40675 -8.74981,7.343105 -11.66184,13.138438 -2.01525,4.010625 -3.29005,7.905155 -3.10963,9.500005 0.33839,2.99129 -0.97046,6.2029 -2.52793,6.2029 -0.55292,0 -2.28311,-0.94472 -3.84487,-2.09938 -2.28531,-1.6896 -3.24051,-1.88479 -4.89376,-1 -1.12981,0.60466 -4.18808,1.09938 -6.79616,1.09938 -4.26677,0 -5.5718,0.62629 -13.02336,6.25 -4.55478,3.4375 -8.30049,6.62413 -8.3238,7.08141 -0.0233,0.45728 4.90763,9.04326 10.95763,19.079956 6.05,10.0367 11.01829,18.88756 11.04064,19.66859 0.0224,0.78102 1.37235,2.97804 3,4.88227 1.62765,1.90422 2.95936,4.19172 2.95936,5.08333 0,3.34155 1.36021,2.642 7.34824,-3.77913 3.38347,-3.6282 12.00176,-11.50781 19.15176,-17.51026 z m 260.5,21.38985 c 0,-1.01968 1.23051,-3.15718 2.73447,-4.75 1.50396,-1.59281 3.24622,-4.34481 3.87169,-6.11555 0.62547,-1.77074 5.73674,-10.87041 11.35837,-20.22147 5.62164,-9.351066 10.06688,-17.463546 9.87831,-18.027736 -0.18856,-0.56419 -3.94284,-3.71661 -8.34284,-7.00537 -7.56325,-5.65313 -8.31069,-5.98084 -13.69098,-6.00273 -3.13004,-0.01274 -5.9691,-0.47316 -6.30902,-1.02316 -0.33992,-0.55 -1.68992,-1 -3,-1 -1.31008,0 -2.66008,0.45 -3,1 -0.88947,1.4392 -5.48101,1.23427 -5.60132,-0.25 -0.0557,-0.6875 -0.0259,-2.65849 0.0663,-4.37997 0.0922,-1.72148 -0.76223,-4.86482 -1.89868,-6.98519 -1.13648,-2.120371 -2.0663,-4.423266 -2.0663,-5.117542 0,-1.656303 -15.96939,-14.267298 -18.06678,-14.267298 -0.89108,0 -3.5874,2.3625 -5.99182,5.25 -12.52844,15.04555 -24.54797,27.86414 -26.61325,28.38249 -1.28048,0.32138 -2.32815,1.14986 -2.32815,1.84106 0,2.257 -4.0937,6.52491 -6.32258,6.59164 -1.3391,0.0401 0.51762,1.32245 4.82258,3.33077 3.85,1.79607 8.8,4.10396 11,5.12866 14.07893,6.55753 42.68205,28.171766 52.80763,39.904616 5.06313,5.86681 6.69237,6.77166 6.69237,3.71678 z m 36,-18.18169 c 7.975,-11.00996 14.65,-20.456006 14.83333,-20.991216 0.18334,-0.53521 -0.83904,-0.97311 -2.27195,-0.97311 -1.43291,0 -5.58266,-1.35 -9.22165,-3 -3.639,-1.65 -7.11662,-2.99214 -7.72805,-2.98253 -0.61142,0.01 -2.8753,3.04711 -5.03083,6.75 -2.15553,3.702886 -6.76803,11.337276 -10.25,16.965306 -7.18828,11.61867 -8.14126,16.27897 -4.08085,19.95634 2.8817,2.60985 5.84694,4.24425 7.75,4.27169 0.825,0.0119 8.025,-8.98652 16,-19.99648 z m -334.72784,14.96287 c 2.05031,-1.69005 3.72784,-3.64144 3.72784,-4.33643 0,-1.0647 -21.01023,-36.934326 -22.51564,-38.439736 -0.27849,-0.27849 -3.9889,0.92724 -8.245348,2.6794 -4.25646,1.75216 -8.78901,3.1821 -10.07234,3.17766 -1.28334,-0.004 -2.18334,0.35104 -2,0.78998 0.77091,1.84573 26.404208,36.806546 27.803058,37.920126 2.75876,2.19615 7.34746,1.46902 11.30243,-1.791 z M 97.430912,90.431414 c 6.409818,-2.87734 24.222788,-16.34553 23.393408,-17.6875 -0.31534,-0.51022 -1.3626,-0.92768 -2.32724,-0.92768 -3.84163,0 -10.93464,-10.085257 -11.72047,-16.664845 -0.31762,-2.659335 -0.78359,-5.484833 -1.0355,-6.278884 -0.30107,-0.949023 -5.24012,3.329231 -14.413918,12.485466 -15.82133,15.791053 -16.75439,17.571543 -13.07211,24.944593 2.49701,4.99978 3.69703,6.14681 7.11393,6.7998 3.46635,0.66245 5.77492,0.15125 12.0619,-2.67095 z m 380.766108,1.05692 c 0.7304,-0.57556 2.42745,-3.21612 3.77122,-5.86791 2.33885,-4.61552 2.37349,-4.95626 0.81101,-7.97777 -2.19377,-4.24229 -25.6469,-28.74426 -27.57234,-28.805397 -0.36416,-0.01156 -0.97701,1.891477 -1.36188,4.228977 -1.41429,8.589455 -6.64602,16.64378 -12.22602,18.82213 -1.2375,0.4831 -2.25,1.24759 -2.25,1.69886 0,0.45127 4.17177,4.00549 9.27059,7.89826 7.94325,6.0644 14.43025,9.70478 20.72941,11.63296 2.01903,0.61803 7.18577,-0.33602 8.82801,-1.63011 z M 220.42368,76.163094 c 0.13317,-1.57597 -0.67714,-4.71699 -1.69582,-5.20308 -1.61502,-0.77063 -6.32223,3.00735 -8.27887,4.60622 -2.01606,1.64742 -2.0464,1.88495 -0.5175,4.05224 2.20681,3.12824 10.11851,0.9665 10.49219,-3.45538 z m 129.3739,4.08171 c 0.86429,-0.86428 1.57143,-1.97509 1.57143,-2.46845 0,-1.0675 -10.48074,-8.96012 -11.89828,-8.96012 -4.24034,0 0.51428,10.52385 5.39698,11.94566 1.65071,0.48068 3.08166,0.91455 3.17987,0.96415 0.0982,0.0496 0.88572,-0.61695 1.75,-1.48124 z m -138.06343,-9.50115 c 2.22371,-1.74917 2.63486,-2.85892 2.63486,-7.11185 0,-4.915606 -0.33355,-5.484344 -13.59286,-23.177416 -7.47608,-9.975985 -14.00108,-18.288154 -14.5,-18.471487 -0.49893,-0.183334 -0.90714,0.823107 -0.90714,2.236535 0,1.662465 -1.94201,4.859099 -5.5,9.053222 -3.025,3.565845 -5.5,6.773519 -5.5,7.128164 0,0.675812 17.47268,20.848774 24.39529,28.165412 4.64783,4.91237 8.64072,5.58271 12.96985,2.17742 z m 157.65761,-11.09066 c 6.31249,-7.239782 12.70951,-14.618674 14.2156,-16.397538 l 2.73834,-3.234297 -5.45908,-5.852463 c -3.32496,-3.564559 -5.70949,-7.122985 -6.09963,-9.102462 -0.35231,-1.7875 -0.92798,-3.235132 -1.27927,-3.216961 -0.58231,0.03012 -28.56027,37.339485 -30.44969,40.605481 -0.44604,0.77101 -0.54461,2.24112 -0.21903,3.26691 0.92276,2.90737 7.58966,6.96683 11.55276,7.03446 3.29456,0.0562 4.26623,-0.79258 15,-13.10313 z M 137.6404,70.066234 c 5.8714,-2.03876 9.93476,-6.83772 12.17393,-14.377817 3.97791,-13.395087 -8.8527,-27.640434 -22.80794,-25.322805 -8.33312,1.383928 -13.57025,5.983752 -16.5878,14.569235 -2.25488,6.415523 -1.7195,10.356172 2.35054,17.301157 2.91512,4.97428 3.38894,5.37662 9.0993,7.72654 5.32124,2.18979 9.68167,2.21846 15.77197,0.10369 z m 298.22861,0.75 c 0.33992,-0.55 1.56115,-1 2.71385,-1 3.24142,0 9.44621,-7.2458 11.3345,-13.236135 1.33133,-4.223472 1.44682,-6.068078 0.5812,-9.282741 -1.61623,-6.002232 -6.52951,-13.102725 -10.30548,-14.893103 -4.62835,-2.194535 -15.48757,-2.352218 -19.4662,-0.282662 -3.97366,2.066972 -8.70139,8.045482 -10.33528,13.069609 -2.80917,8.638018 2.23942,20.461282 10.42682,24.418512 4.32609,2.09094 14.02354,2.86833 15.05059,1.20652 z m -271.33878,-28.25 c 12.61729,-9.731691 17.40644,-15.101748 18.31178,-20.532947 0.65901,-3.953471 0.42537,-4.63509 -3.03706,-8.86054 -3.43512,-4.192102 -4.05353,-4.536828 -7.34347,-4.093517 -4.05902,0.546943 -37.09247,16.311272 -37.09247,17.701391 0,0.495461 1.0125,1.201181 2.25,1.568267 7.08411,2.101396 13.86913,9.965211 15.2868,17.717346 0.37718,2.0625 1.03203,3.75 1.45523,3.75 0.4232,0 4.99933,-3.2625 10.16919,-7.25 z m 242.39383,3.808265 c 1.03366,-5.509905 6.87943,-13.95466 11.16265,-16.125476 2.08026,-1.054319 4.36308,-2.328278 5.07291,-2.831018 1.44262,-1.021725 -1.68345,-2.938698 -20.74665,-12.722307 C 389.09299,7.859622 385.0899,7.25184 381.39252,11.5042 c -6.07349,6.985128 -5.89419,12.015078 0.6893,19.337501 4.12761,4.5909 21.85765,18.893027 23.49188,18.949976 0.38757,0.01351 0.99524,-1.524224 1.35036,-3.417178 z"
         id="main"
         inkscape:connector-curvature="0"
         sodipodi:nodetypes="cssccsssccsccsscccscccccsscscsscsscsscscsssscsssccssscscsccscsscscsssssccscscssscssscsscccsssscscscccsccscssscccccccssccsscscsssscssscssccssscscscssscccsssccsscccscccccccccccsssccccccccsscccccscsssssscccsssssccsssssccssssscccssccsscscssssssssssscccccccsccsccccsscssscccscccccsccsssccsccssssssssccsssssscscccssscsccsscsscscccscsscssscssscccssscsssscssssccccccccssccccccssssscccccsssssscscsccsccscsccccscsccccsccsscssssccssssssscsscsccsccsscccccscssscscscssscccccccccccccccccccccccccsscsccccccsccscccsssccccccsccccscscccscccccccsccssssccsscscccssccssccccsssssccscccccccccsscscscsccsccccscscssssccccccccscsscsssccccssscsscsssccccsscsccsscsccscssssscccssccscssscscccssscsccssscscsssccccscsccsscsccscccssccccscccsscccssscssssssscsccsccsscsccsscssssscscsscsssssssscssscss" />
      <g
         id="p_eat_default">
        <ellipse
           ry="36.19809"
           rx="37.232185"
           cy="146.47113"
           cx="200.13612"
           id="path4765"
           style="opacity:1;fill:#ffffff;fill-opacity:1;stroke:#00000a;stroke-width:3.77856326;stroke-linecap:butt;stroke-linejoin:round;stroke-miterlimit:4;stroke-dasharray:none;stroke-dashoffset:0;stroke-opacity:1" />
        <ellipse
           style="opacity:1;fill:#ffffff;fill-opacity:1;stroke:#00000a;stroke-width:3.77856326;stroke-linecap:butt;stroke-linejoin:round;stroke-miterlimit:4;stroke-dasharray:none;stroke-dashoffset:0;stroke-opacity:1"
           id="ellipse4767"
           cx="360.62415"
           cy="148.44778"
           rx="37.232185"
           ry="36.19809" />
        <ellipse
           ry="36.19809"
           rx="37.232185"
           cy="300.65005"
           cx="407.34857"
           id="ellipse4769"
           style="opacity:1;fill:#ffffff;fill-opacity:1;stroke:#00000a;stroke-width:3.77856326;stroke-linecap:butt;stroke-linejoin:round;stroke-miterlimit:4;stroke-dasharray:none;stroke-dashoffset:0;stroke-opacity:1" />
        <ellipse
           ry="36.19809"
           rx="37.232185"
           cy="298.01453"
           cx="154.0889"
           id="ellipse4773"
           style="opacity:1;fill:#ffffff;fill-opacity:1;stroke:#00000a;stroke-width:3.77856326;stroke-linecap:butt;stroke-linejoin:round;stroke-miterlimit:4;stroke-dasharray:none;stroke-dashoffset:0;stroke-opacity:1" />
        <ellipse
           style="opacity:1;fill:#ffffff;fill-opacity:1;stroke:#00000a;stroke-width:3.77856326;stroke-linecap:butt;stroke-linejoin:round;stroke-miterlimit:4;stroke-dasharray:none;stroke-dashoffset:0;stroke-opacity:1"
           id="ellipse4576"
           cx="280.04153"
           cy="393.55273"
           rx="37.232185"
           ry="36.19809" />
      </g>
      <g
         id="g_think_default">
        <circle
           cy="336.27814"
           cx="36.331436"
           id="circle4524"
           style="opacity:1;fill:#ffffff;fill-opacity:1;stroke:#00000a;stroke-width:3.06911373;stroke-linecap:butt;stroke-linejoin:round;stroke-miterlimit:4;stroke-dasharray:none;stroke-dashoffset:0;stroke-opacity:1"
           r="22.465443" />
        <circle
           r="22.465443"
           style="opacity:1;fill:#ffffff;fill-opacity:1;stroke:#00000a;stroke-width:3.06911373;stroke-linecap:butt;stroke-linejoin:round;stroke-miterlimit:4;stroke-dasharray:none;stroke-dashoffset:0;stroke-opacity:1"
           id="circle4526"
           cx="280.10648"
           cy="513.81384" />
        <circle
           cy="336.23175"
           cx="523.60388"
           id="circle4528"
           style="opacity:1;fill:#ffffff;fill-opacity:1;stroke:#00000a;stroke-width:3.06911373;stroke-linecap:butt;stroke-linejoin:round;stroke-miterlimit:4;stroke-dasharray:none;stroke-dashoffset:0;stroke-opacity:1"
           r="22.465443" />
        <circle
           r="22.465443"
           style="opacity:1;fill:#ffffff;fill-opacity:1;stroke:#00000a;stroke-width:3.06911373;stroke-linecap:butt;stroke-linejoin:round;stroke-miterlimit:4;stroke-dasharray:none;stroke-dashoffset:0;stroke-opacity:1"
           id="circle4530"
           cx="430.60645"
           cy="50.43885" />
        <circle
           cy="50.56385"
           cx="129.35646"
           id="circle4532"
           style="opacity:1;fill:#ffffff;fill-opacity:1;stroke:#00000a;stroke-width:3.06911373;stroke-linecap:butt;stroke-linejoin:round;stroke-miterlimit:4;stroke-dasharray:none;stroke-dashoffset:0;stroke-opacity:1"
           r="22.465443" />
      </g>
    </g>
    <g
       id="g_forks">
      <path
         style="opacity:1;fill:#ff0000;fill-opacity:1;stroke:#00000a;stroke-width:0.08838835;stroke-linecap:butt;stroke-linejoin:round;stroke-miterlimit:4;stroke-dasharray:none;stroke-dashoffset:0;stroke-opacity:1"
         d="m 276.37693,143.44136 c 4.8e-4,-0.20661 0.11938,-11.3336 0.26423,-24.72664 0.14486,-13.39305 0.2638,-24.579697 0.26431,-24.859225 l 9.4e-4,-0.508233 h 2.96101 2.96101 l 8.9e-4,0.331456 c 5e-4,0.182301 0.11942,11.309292 0.26427,24.726642 0.14486,13.41735 0.26378,24.62389 0.26427,24.90342 l 9e-4,0.50823 h -3.49134 -3.49134 z"
         id="fork2"
         inkscape:connector-curvature="0" />
      <path
         style="opacity:1;fill:#ff0000;fill-opacity:1;stroke:#00000a;stroke-width:0.5;stroke-linecap:butt;stroke-linejoin:round;stroke-miterlimit:4;stroke-dasharray:none;stroke-dashoffset:0;stroke-opacity:1"
         d="m 388.47754,224.42257 c -0.28468,-0.53192 -0.51759,-1.65114 -0.51759,-2.48716 0,-1.16912 0.33241,-1.69192 1.43993,-2.26464 2.14025,-1.10677 36.2559,-12.51947 40.5278,-13.55775 l 3.68555,-0.89578 1.19893,1.39384 c 2.50457,2.91174 3.27087,2.543 -25.07817,12.06735 -10.98677,3.6912 -20.1476,6.71127 -20.3574,6.71127 -0.2098,0 -0.61438,-0.4352 -0.89905,-0.96713 z"
         id="fork3"
         inkscape:connector-curvature="0" />
      <path
         style="opacity:1;fill:#ff0000;fill-opacity:1;stroke:#00000a;stroke-width:0.5;stroke-linecap:butt;stroke-linejoin:round;stroke-miterlimit:4;stroke-dasharray:none;stroke-dashoffset:0;stroke-opacity:1"
         d="m 369.11975,385.2647 c -3.32532,-4.28764 -21.36931,-28.66944 -23.5914,-31.8777 -0.61397,-0.88644 -0.49583,-1.16986 1.19044,-2.85614 l 1.87204,-1.87204 1.74566,1.99044 c 3.21946,3.6709 25.37879,33.38913 26.57295,35.63742 0.54319,1.02267 0.43773,1.30716 -0.97302,2.625 -0.87022,0.81291 -1.86566,1.47802 -2.21208,1.47802 -0.34642,0 -2.41849,-2.30625 -4.60459,-5.125 z"
         id="fork4"
         inkscape:connector-curvature="0" />
      <path
         style="opacity:1;fill:#ff0000;fill-opacity:1;stroke:#00000a;stroke-width:0.5;stroke-linecap:butt;stroke-linejoin:round;stroke-miterlimit:4;stroke-dasharray:none;stroke-dashoffset:0;stroke-opacity:1"
         d="m 185.20995,389.91702 c -0.55,-0.22511 -1.40535,-0.86012 -1.90077,-1.41114 -0.87731,-0.97577 -0.83102,-1.10425 1.77788,-4.93402 1.47325,-2.16269 7.14525,-10.00716 12.60444,-17.43216 5.45919,-7.425 10.50915,-14.33262 11.22213,-15.35026 0.9804,-1.39936 1.54002,-1.77938 2.29632,-1.5594 1.41167,0.4106 3.75,2.12731 3.75,2.75311 0,1.43247 -27.44662,38.4741 -28.4345,38.37486 -0.17353,-0.0174 -0.7655,-0.21587 -1.3155,-0.44099 z"
         id="fork5"
         inkscape:connector-curvature="0" />
      <path
         style="opacity:1;fill:#ff0000;fill-opacity:1;stroke:#00000a;stroke-width:0.5;stroke-linecap:butt;stroke-linejoin:round;stroke-miterlimit:4;stroke-dasharray:none;stroke-dashoffset:0;stroke-opacity:1"
         d="m 150.45995,218.92543 c -20.72509,-6.90787 -23.38446,-7.92019 -24.9689,-9.50463 -1.27712,-1.27712 -1.28897,-1.77323 -0.0714,-2.9908 0.91675,-0.91675 1.11257,-0.92506 4.375,-0.18553 3.56627,0.8084 36.3269,11.60707 40.03424,13.19622 1.69244,0.72546 2.13106,1.16957 2.13106,2.15772 0,1.59262 -0.99847,3.79844 -1.70526,3.76726 -0.29961,-0.0132 -9.20724,-2.91132 -19.79474,-6.44024 z"
         id="fork1"
         inkscape:connector-curvature="0" />
    </g>
    <g
       id="g_right_hands">
      <path
         style="opacity:1;fill:#ff0000;fill-opacity:1;stroke:#00000a;stroke-width:0.5;stroke-linecap:butt;stroke-linejoin:round;stroke-miterlimit:4;stroke-dasharray:none;stroke-dashoffset:0;stroke-opacity:1"
         d="m 114.00304,135.56361 c -2.15536,-1.50968 -28.332034,-37.301879 -27.850544,-38.080946 0.154083,-0.249312 1.279316,-0.590245 2.500518,-0.757629 1.221202,-0.167385 5.277984,-1.43631 9.015073,-2.819833 3.737093,-1.383524 7.111393,-2.515498 7.498463,-2.515498 0.78311,0 2.54938,2.685107 9.61742,14.620516 7.81363,13.19446 13.17598,22.77403 13.17598,23.53824 0,0.97522 -3.94699,4.53879 -6.43038,5.80572 -2.44718,1.24846 -5.9057,1.3447 -7.52653,0.20943 z"
         id="p2_right"
         inkscape:connector-curvature="0" />
      <path
         style="opacity:1;fill:#ff0000;fill-opacity:1;stroke:#00000a;stroke-width:0.5;stroke-linecap:butt;stroke-linejoin:round;stroke-miterlimit:4;stroke-dasharray:none;stroke-dashoffset:0;stroke-opacity:1"
         d="m 66.213601,392.5401 c 0.209073,-0.49522 0.491648,-5.36224 0.627943,-10.8156 0.237539,-9.50426 0.291754,-9.93455 1.308107,-10.38203 1.851983,-0.81541 37.459919,-8.49431 39.882619,-8.60074 2.9098,-0.12784 3.7514,0.58766 5.91993,5.03289 1.10889,2.2731 1.72209,4.3651 1.88965,6.44677 l 0.24805,3.08169 -2.01341,1.02717 c -1.66969,0.85181 -42.139388,13.61151 -46.804782,14.75709 -1.254608,0.30807 -1.389706,0.2382 -1.058107,-0.54724 z"
         id="p1_right"
         inkscape:connector-curvature="0" />
      <path
         style="opacity:1;fill:#ff0000;fill-opacity:1;stroke:#00000a;stroke-width:0.5;stroke-linecap:butt;stroke-linejoin:round;stroke-miterlimit:4;stroke-dasharray:none;stroke-dashoffset:0;stroke-opacity:1"
         d="m 350.03961,71.311794 c -3.57192,-1.372142 -7.07966,-4.727284 -7.07966,-6.771666 0,-1.790144 2.01071,-4.719434 16.29359,-23.737153 11.41532,-15.19955 13.67066,-18.10815 14.19643,-18.308458 0.2096,-0.07985 0.62465,0.822055 0.92233,2.004239 0.71032,2.820947 2.64289,5.663308 7.55154,11.106592 3.48329,3.862675 3.93722,4.57155 3.36185,5.25 -14.20758,16.752884 -25.61915,29.422503 -27.57574,30.615795 -1.92766,1.175641 -4.32478,1.125841 -7.67034,-0.159349 z"
         id="p3_right"
         inkscape:connector-curvature="0" />
      <path
         style="opacity:1;fill:#ff0000;fill-opacity:1;stroke:#00000a;stroke-width:0.5;stroke-linecap:butt;stroke-linejoin:round;stroke-miterlimit:4;stroke-dasharray:none;stroke-dashoffset:0;stroke-opacity:1"
         d="m 509.69002,286.69471 c -4.5375,-2.0245 -12.1875,-5.47767 -17,-7.67371 -4.8125,-2.19604 -9.24239,-4.14722 -9.8442,-4.33597 -0.60182,-0.18874 -1.80803,-1.15616 -2.68047,-2.14982 -1.51827,-1.72921 -1.57175,-1.93489 -1.24777,-4.79849 0.46536,-4.11322 1.60439,-6.73443 3.30959,-7.61623 3.34404,-1.72926 8.18387,-0.65338 31.05429,6.9033 l 18.34144,6.06024 -2.84144,3.05107 c -2.88089,3.09344 -3.64921,4.14472 -7.76857,10.6296 -1.26648,1.99375 -2.47598,3.62183 -2.68778,3.61796 -0.2118,-0.004 -4.09759,-1.66345 -8.63509,-3.68795 z"
         id="p4_right"
         inkscape:connector-curvature="0" />
      <path
         style="opacity:1;fill:#ff0000;fill-opacity:1;stroke:#00000a;stroke-width:0.5;stroke-linecap:butt;stroke-linejoin:round;stroke-miterlimit:4;stroke-dasharray:none;stroke-dashoffset:0;stroke-opacity:1"
         d="m 341.71079,502.12075 c -1.04711,-1.26169 -4.79494,-2.79454 -10.47847,-4.28568 -7.18519,-1.88511 -8.5423,-2.59271 -8.5423,-4.45396 0,-3.30426 3.56412,-36.92844 4.0847,-38.53537 1.26503,-3.90491 3.06519,-5.16283 8.21291,-5.73907 3.64229,-0.40772 6.69662,0.30184 7.60723,1.76725 1.33854,2.15406 1.71444,10.01341 1.44544,30.22182 -0.14643,11 -0.42171,20.39375 -0.61175,20.875 -0.42052,1.06494 -0.92209,1.10874 -1.71776,0.15001 z"
         id="p5_right"
         inkscape:connector-curvature="0" />
    </g>
    <g
       id="g_left_hands">
      <path
         style="opacity:1;fill:#ff0000;fill-opacity:1;stroke:#00000a;stroke-width:0.5;stroke-linecap:butt;stroke-linejoin:round;stroke-miterlimit:4;stroke-dasharray:none;stroke-dashoffset:0;stroke-opacity:1"
         d="m 202.70995,71.461312 c -3.35508,-2.068192 -27.77672,-29.48595 -27.7308,-31.13289 0.0106,-0.378795 1.92161,-3.051218 4.24676,-5.938718 4.26619,-5.297978 5.95082,-8.069912 6.48408,-10.669125 0.24125,-1.175859 0.41619,-1.315356 1.02057,-0.813771 0.90083,0.747623 11.62401,14.665107 18.84385,24.457205 7.47025,10.131717 8.38554,11.952609 8.38554,16.682317 0,3.333962 -0.15043,3.945428 -1.30956,5.32297 -0.72026,0.855976 -1.94658,1.885739 -2.72517,2.288362 -1.95734,1.012177 -5.40705,0.918302 -7.21527,-0.19635 z"
         id="p2_left"
         inkscape:connector-curvature="0" />
      <path
         style="opacity:1;fill:#ff0000;fill-opacity:1;stroke:#00000a;stroke-width:0.5;stroke-linecap:butt;stroke-linejoin:round;stroke-miterlimit:4;stroke-dasharray:none;stroke-dashoffset:0;stroke-opacity:1"
         d="m 37.613856,284.76214 c -1.977851,-3.09234 -4.741509,-6.90431 -6.141462,-8.47104 -2.260663,-2.52997 -2.445657,-2.90038 -1.653907,-3.3116 1.28467,-0.66723 24.36497,-8.56933 34.594047,-11.84411 10.538156,-3.37373 12.788671,-3.77156 13.80978,-2.44116 1.215325,1.58344 2.737635,7.14134 2.737635,9.995 0,2.5892 -0.08172,2.7534 -2.096995,4.21326 -1.153351,0.83548 -4.809601,2.8349 -8.125002,4.44316 -6.922334,3.35793 -28.571272,13.04532 -29.144527,13.04149 -0.210912,-10e-4 -2.001718,-2.53266 -3.979569,-5.625 z"
         id="p1_left"
         inkscape:connector-curvature="0" />
      <path
         style="opacity:1;fill:#ff0000;fill-opacity:1;stroke:#00000a;stroke-width:0.5;stroke-linecap:butt;stroke-linejoin:round;stroke-miterlimit:4;stroke-dasharray:none;stroke-dashoffset:0;stroke-opacity:1"
         d="m 438.54282,136.36563 c -3.3771,-2.25514 -5.08287,-4.56777 -5.08287,-6.89119 0,-2.24659 1.79236,-6.6914 4.77233,-11.83474 5.60431,-9.67286 14.83708,-24.555068 15.8798,-25.596498 l 1.09787,-1.096501 6,2.510383 c 3.3,1.38071 7.42869,2.815328 9.17487,3.188038 1.74618,0.372711 3.27011,0.772898 3.38652,0.889304 0.43698,0.436988 -17.732,25.682934 -25.17458,34.980274 -3.57042,4.4602 -4.98231,5.875 -5.86292,5.875 -0.63797,0 -2.52392,-0.91083 -4.19102,-2.02407 z"
         id="p3_left"
         inkscape:connector-curvature="0" />
      <path
         style="opacity:1;fill:#ff0000;fill-opacity:1;stroke:#00000a;stroke-width:0.5;stroke-linecap:butt;stroke-linejoin:round;stroke-miterlimit:4;stroke-dasharray:none;stroke-dashoffset:0;stroke-opacity:1"
         d="m 488.94002,392.13241 c -1.1,-0.3731 -8.8625,-2.81179 -17.25,-5.41932 -8.3875,-2.60753 -16.55759,-5.23086 -18.15577,-5.82961 -5.05935,-1.89549 -8.67922,-6.67556 -8.20971,-10.84101 0.3135,-2.78134 2.41471,-5.95399 4.64887,-7.01938 1.69588,-0.80871 1.99172,-0.77791 10.10682,1.05228 27.12154,6.11671 31.70323,7.20777 32.15194,7.65648 0.32792,0.32792 0.31603,2.72332 -0.0351,7.07034 -0.49873,6.1747 -0.24118,10.67653 0.7559,13.21251 0.42556,1.08238 -1.04188,1.12542 -4.01297,0.11771 z"
         id="p4_left"
         inkscape:connector-curvature="0" />
      <path
         style="opacity:1;fill:#ff0000;fill-opacity:1;stroke:#00000a;stroke-width:0.5;stroke-linecap:butt;stroke-linejoin:round;stroke-miterlimit:4;stroke-dasharray:none;stroke-dashoffset:0;stroke-opacity:1"
         d="m 218.26357,500.37755 c -0.17795,-0.43 -0.32355,-10.79431 -0.32355,-23.03181 0,-21.52727 0.0336,-22.31404 1.03431,-24.22166 1.50765,-2.87394 3.22876,-3.97667 6.1382,-3.93278 2.96791,0.0448 5.75761,1.30083 7.11123,3.20182 1.34373,1.88709 1.64666,3.98739 3.50238,24.28348 1.5409,16.8528 1.55673,17.29763 0.64672,18.17216 -0.51306,0.49306 -4.72474,2.11466 -9.35929,3.60354 -7.21789,2.31881 -8.47285,2.59493 -8.75,1.92525 z"
         id="p5_left"
         inkscape:connector-curvature="0" />
    </g>
    <g
       id="g_eat">
      <ellipse
         style="opacity:1;fill:#ff0000;fill-opacity:1;stroke:#00000a;stroke-width:3.77856326;stroke-linecap:butt;stroke-linejoin:round;stroke-miterlimit:4;stroke-dasharray:none;stroke-dashoffset:0;stroke-opacity:1"
         id="p2_eat"
         cx="200.13612"
         cy="146.47113"
         rx="37.232185"
         ry="36.19809" />
      <ellipse
         ry="36.19809"
         rx="37.232185"
         cy="148.44778"
         cx="360.62415"
         id="p3_eat"
         style="opacity:1;fill:#ff0000;fill-opacity:1;stroke:#00000a;stroke-width:3.77856326;stroke-linecap:butt;stroke-linejoin:round;stroke-miterlimit:4;stroke-dasharray:none;stroke-dashoffset:0;stroke-opacity:1" />
      <ellipse
         style="opacity:1;fill:#ff0000;fill-opacity:1;stroke:#00000a;stroke-width:3.77856326;stroke-linecap:butt;stroke-linejoin:round;stroke-miterlimit:4;stroke-dasharray:none;stroke-dashoffset:0;stroke-opacity:1"
         id="p4_eat"
         cx="407.34857"
         cy="300.65005"
         rx="37.232185"
         ry="36.19809" />
      <ellipse
         style="opacity:1;fill:#ff0000;fill-opacity:1;stroke:#00000a;stroke-width:3.77856326;stroke-linecap:butt;stroke-linejoin:round;stroke-miterlimit:4;stroke-dasharray:none;stroke-dashoffset:0;stroke-opacity:1"
         id="p1_eat"
         cx="154.0889"
         cy="298.01453"
         rx="37.232185"
         ry="36.19809" />
      <ellipse
         ry="36.19809"
         rx="37.232185"
         cy="393.55273"
         cx="280.04153"
         id="p5_eat"
         style="opacity:1;fill:#ff0000;fill-opacity:1;stroke:#00000a;stroke-width:3.77856326;stroke-linecap:butt;stroke-linejoin:round;stroke-miterlimit:4;stroke-dasharray:none;stroke-dashoffset:0;stroke-opacity:1" />
    </g>
    <g
       id="g_think">
      <circle
         r="22.465443"
         style="opacity:1;fill:#ffff00;fill-opacity:1;stroke:#00000a;stroke-width:3.06911373;stroke-linecap:butt;stroke-linejoin:round;stroke-miterlimit:4;stroke-dasharray:none;stroke-dashoffset:0;stroke-opacity:1"
         id="p1_think"
         cx="36.331436"
         cy="336.27814" />
      <circle
         cy="513.81384"
         cx="280.10648"
         id="p5_think"
         style="opacity:1;fill:#ffff00;fill-opacity:1;stroke:#00000a;stroke-width:3.06911373;stroke-linecap:butt;stroke-linejoin:round;stroke-miterlimit:4;stroke-dasharray:none;stroke-dashoffset:0;stroke-opacity:1"
         r="22.465443" />
      <circle
         r="22.465443"
         style="opacity:1;fill:#ffff00;fill-opacity:1;stroke:#00000a;stroke-width:3.06911373;stroke-linecap:butt;stroke-linejoin:round;stroke-miterlimit:4;stroke-dasharray:none;stroke-dashoffset:0;stroke-opacity:1"
         id="p4_think"
         cx="523.60388"
         cy="336.23175" />
      <circle
         cy="50.43885"
         cx="430.60645"
         id="p3_think"
         style="opacity:1;fill:#ffff00;fill-opacity:1;stroke:#00000a;stroke-width:3.06911373;stroke-linecap:butt;stroke-linejoin:round;stroke-miterlimit:4;stroke-dasharray:none;stroke-dashoffset:0;stroke-opacity:1"
         r="22.465443" />
      <circle
         r="22.465443"
         style="opacity:1;fill:#ffff00;fill-opacity:1;stroke:#00000a;stroke-width:3.06911373;stroke-linecap:butt;stroke-linejoin:round;stroke-miterlimit:4;stroke-dasharray:none;stroke-dashoffset:0;stroke-opacity:1"
         id="p2_think"
         cx="129.35646"
         cy="50.56385" />
    </g>
  </g>
</svg>
