<svg xmlns="http://www.w3.org/2000/svg" width="1054.24" height="361.86" viewBox="0 0 1054.24 361.86"><rect width="1054.24" height="361.86" fill="#005bbb"/><rect y="180.93" width="1054.24" height="180.93" fill="#ffd500"/><rect x="74.81" y="99.29" width="11.56" height="57.27" fill="#fff"/><path d="M116.69,137.92l11.25-1.09q1,5.67,4.12,8.32a12.46,12.46,0,0,0,8.38,2.66q5.58,0,8.42-2.37a7,7,0,0,0,2.83-5.52,5.23,5.23,0,0,0-1.19-3.46,9.53,9.53,0,0,0-4.16-2.48c-1.36-.47-4.44-1.3-9.26-2.5q-9.3-2.31-13.05-5.66a14.94,14.94,0,0,1-5.27-11.53,14.68,14.68,0,0,1,2.48-8.18,15.53,15.53,0,0,1,7.15-5.8,28.62,28.62,0,0,1,11.27-2q10.77,0,16.23,4.72a16.69,16.69,0,0,1,5.72,12.62l-11.56.51c-.5-3-1.56-5.06-3.19-6.35s-4.07-1.93-7.32-1.93-6,.69-7.89,2.07a4.15,4.15,0,0,0-1.84,3.55,4.42,4.42,0,0,0,1.72,3.48q2.19,1.83,10.63,3.83a55.79,55.79,0,0,1,12.48,4.12,16.18,16.18,0,0,1,6.33,5.82,18.06,18.06,0,0,1-.45,18.34,16.4,16.4,0,0,1-7.74,6.38,32.3,32.3,0,0,1-12.46,2.09q-10.86,0-16.68-5T116.69,137.92Z" fill="#fff"/><polygon points="185.87 156.56 185.87 108.98 168.88 108.98 168.88 99.29 214.38 99.29 214.38 108.98 197.43 108.98 197.43 156.56 185.87 156.56" fill="#fff"/><path d="M244.62,99.29H232.39l-22.3,57.27h12.26l4.73-13H250l5,13h12.58Zm-14,34.61,7.74-21.25,7.89,21.25Z" fill="#fff"/><polygon points="273.8 156.56 273.8 99.29 285.05 99.29 308.49 137.53 308.49 99.29 319.23 99.29 319.23 156.56 307.63 156.56 284.54 119.21 284.54 156.56 273.8 156.56" fill="#fff"/><path d="M377.55,114.94a25.13,25.13,0,0,0-5.47-9.28,19.12,19.12,0,0,0-8.63-5.27,41.23,41.23,0,0,0-10.9-1.1H331.41v57.27h21.76a35.32,35.32,0,0,0,10.24-1.21,20.39,20.39,0,0,0,8.12-4.57,25.18,25.18,0,0,0,6.13-10.12,37.4,37.4,0,0,0,1.76-12.19A42.26,42.26,0,0,0,377.55,114.94ZM366.3,138.45a12.07,12.07,0,0,1-3,5.53,10.68,10.68,0,0,1-4.67,2.38,31.09,31.09,0,0,1-7,.55H343V109h5.19a51.7,51.7,0,0,1,9.49.55,10.92,10.92,0,0,1,5.36,2.69,13.18,13.18,0,0,1,3.28,5.55A34.26,34.26,0,0,1,367.47,128,37.39,37.39,0,0,1,366.3,138.45Z" fill="#fff"/><polygon points="419.58 156.56 405.91 99.29 417.74 99.29 426.38 138.63 436.85 99.29 450.6 99.29 460.63 139.29 469.42 99.29 481.06 99.29 467.16 156.56 454.89 156.56 443.49 113.75 432.12 156.56 419.58 156.56" fill="#fff"/><rect x="486.61" y="99.29" width="11.56" height="57.27" fill="#fff"/><polygon points="522.08 156.56 522.08 108.98 505.09 108.98 505.09 99.29 550.6 99.29 550.6 108.98 533.64 108.98 533.64 156.56 522.08 156.56" fill="#fff"/><polygon points="558.1 156.56 558.1 99.29 569.66 99.29 569.66 121.83 592.31 121.83 592.31 99.29 603.88 99.29 603.88 156.56 592.31 156.56 592.31 131.52 569.66 131.52 569.66 156.56 558.1 156.56" fill="#fff"/><path d="M638,99.29h11.56v31a63.84,63.84,0,0,0,.43,9.57,9.26,9.26,0,0,0,3.53,5.64,12.34,12.34,0,0,0,7.64,2.13c3.28,0,5.76-.67,7.42-2a7.94,7.94,0,0,0,3-4.94,64.28,64.28,0,0,0,.51-9.73V99.29h11.56v30.08q0,10.31-.94,14.57a16.1,16.1,0,0,1-3.45,7.19,17.54,17.54,0,0,1-6.74,4.67,29.53,29.53,0,0,1-11,1.73q-8.21,0-12.44-1.89a17.78,17.78,0,0,1-6.7-4.92,15.81,15.81,0,0,1-3.24-6.35A69.28,69.28,0,0,1,638,129.84Z" fill="#fff"/><polygon points="695.99 156.56 695.99 99.29 707.55 99.29 707.55 124.72 730.91 99.29 746.45 99.29 724.89 121.6 747.63 156.56 732.66 156.56 716.92 129.68 707.55 139.25 707.55 156.56 695.99 156.56" fill="#fff"/><path d="M798.13,145.39a64.45,64.45,0,0,0-6.58-9.3,26.93,26.93,0,0,0-6.19-4.81q7.54-1.08,11.33-5.29a15.32,15.32,0,0,0,3.79-10.64,16.56,16.56,0,0,0-2.5-9,13.2,13.2,0,0,0-6.66-5.49Q787.15,99.3,778,99.29H753.64v57.27H765.2V132.65h2.35a19.06,19.06,0,0,1,5.82.65,8.84,8.84,0,0,1,3.47,2.38,79.23,79.23,0,0,1,6.1,8.42l8.36,12.46h13.83Zm-24.37-21.88H765.2V109h9c4.68,0,7.5.06,8.43.19a7.15,7.15,0,0,1,4.36,2.25,6.87,6.87,0,0,1,1.54,4.67,7.48,7.48,0,0,1-1.17,4.3,6.25,6.25,0,0,1-3.24,2.42Q782.08,123.52,773.76,123.51Z" fill="#fff"/><path d="M840.09,99.29H827.86l-22.3,57.27h12.26l4.73-13h22.89l5,13H863Zm-14,34.61,7.74-21.25,7.89,21.25Z" fill="#fff"/><rect x="868.8" y="99.29" width="11.56" height="57.27" fill="#fff"/><polygon points="891.49 156.56 891.49 99.29 902.74 99.29 926.18 137.53 926.18 99.29 936.92 99.29 936.92 156.56 925.32 156.56 902.24 119.21 902.24 156.56 891.49 156.56" fill="#fff"/><polygon points="949.15 156.56 949.15 99.29 991.61 99.29 991.61 108.98 960.71 108.98 960.71 121.67 989.46 121.67 989.46 131.32 960.71 131.32 960.71 146.91 992.7 146.91 992.7 156.56 949.15 156.56" fill="#fff"/><path d="M207.91,249.34l11.25-1.09q1,5.67,4.13,8.32a12.45,12.45,0,0,0,8.37,2.66c3.73,0,6.53-.79,8.42-2.37a7,7,0,0,0,2.83-5.52,5.18,5.18,0,0,0-1.19-3.46,9.47,9.47,0,0,0-4.16-2.48q-2-.71-9.26-2.5-9.28-2.31-13-5.66A14.92,14.92,0,0,1,210,225.71a14.76,14.76,0,0,1,2.48-8.18,15.58,15.58,0,0,1,7.15-5.8,28.62,28.62,0,0,1,11.27-2q10.78,0,16.23,4.72a16.7,16.7,0,0,1,5.73,12.62l-11.57.51c-.49-3-1.55-5.06-3.18-6.35s-4.07-1.93-7.32-1.93-6,.69-7.9,2.07a4.17,4.17,0,0,0-1.83,3.55,4.39,4.39,0,0,0,1.72,3.48q2.19,1.83,10.62,3.83a55.43,55.43,0,0,1,12.48,4.12,16,16,0,0,1,6.33,5.82,18,18,0,0,1-.45,18.34A16.37,16.37,0,0,1,244,266.9,32.34,32.34,0,0,1,231.55,269q-10.86,0-16.68-5T207.91,249.34Z" fill="#005bbb"/><path d="M283.15,226.49v8.75h-7.5V252a42.53,42.53,0,0,0,.21,5.92,2.46,2.46,0,0,0,1,1.39,3.14,3.14,0,0,0,1.86.54,14.29,14.29,0,0,0,4.41-1.05l.94,8.51a21.78,21.78,0,0,1-8.68,1.64,13.86,13.86,0,0,1-5.35-1,7.78,7.78,0,0,1-3.49-2.58,10.23,10.23,0,0,1-1.55-4.28,53.82,53.82,0,0,1-.35-7.73V235.24h-5v-8.75h5v-8.24l11-6.41v14.65Z" fill="#005bbb"/><path d="M324.85,262.41a44.57,44.57,0,0,1-.53-8.07l.12-12.81c0-4.76-.49-8-1.47-9.82a10.84,10.84,0,0,0-5.06-4.42q-3.59-1.72-10.93-1.73-8.09,0-12.19,2.89t-5.78,8.9l10,1.8a8,8,0,0,1,2.65-4A7.87,7.87,0,0,1,306.2,234q4.33,0,5.89,1.35c1,.9,1.57,2.4,1.57,4.51v1.1A60,60,0,0,1,303,243.6a36.71,36.71,0,0,0-8.73,2.56,11,11,0,0,0-4.71,4.22,11.82,11.82,0,0,0-1.68,6.27,11.57,11.57,0,0,0,3.7,8.79q3.69,3.48,10.09,3.47a17.26,17.26,0,0,0,6.84-1.36,20,20,0,0,0,6-4.1c.07.21.2.63.39,1.29q.61,2.14,1,3.24h10.86A23.68,23.68,0,0,1,324.85,262.41Zm-11.19-12.17a22,22,0,0,1-.43,5.35,6.88,6.88,0,0,1-2.62,3.64,9.53,9.53,0,0,1-5.66,1.95,6,6,0,0,1-4.38-1.68,5.37,5.37,0,0,1-1.72-4,4.57,4.57,0,0,1,2.15-3.87c.94-.63,2.93-1.26,6-1.91s5.27-1.22,6.68-1.68Z" fill="#005bbb"/><path d="M373,268H362V246.81q0-6.72-.71-8.7a6.13,6.13,0,0,0-2.28-3.06,6.55,6.55,0,0,0-3.81-1.1,8.83,8.83,0,0,0-5.12,1.57,7.85,7.85,0,0,0-3.1,4.14c-.56,1.72-.84,4.89-.84,9.53V268h-11V226.49h10.19v6.1q5.43-7,13.68-7a16.53,16.53,0,0,1,6.64,1.3,11.27,11.27,0,0,1,4.55,3.34,12.21,12.21,0,0,1,2.15,4.61,34.63,34.63,0,0,1,.6,7.39Z" fill="#005bbb"/><path d="M411.2,210.71v20.63q-5.08-5.79-12-5.78A16.2,16.2,0,0,0,386.62,231q-5,5.49-5,16,0,10.3,5.1,16.07A15.81,15.81,0,0,0,399,268.91a15.47,15.47,0,0,0,7-1.73,16.53,16.53,0,0,0,6-5.3V268h10.19V210.71ZM408.58,257a8.07,8.07,0,0,1-6.45,3.22,8.29,8.29,0,0,1-7.42-4.29c-1.22-2-1.84-5.19-1.84-9.61q0-6.18,2.64-9.28a8.26,8.26,0,0,1,6.54-3.11,8.16,8.16,0,0,1,6.61,3.15q2.56,3.15,2.57,10.29Q411.23,253.8,408.58,257Z" fill="#005bbb"/><polygon points="441.19 267.98 427.52 210.71 439.36 210.71 447.99 250.05 458.46 210.71 472.21 210.71 482.25 250.71 491.04 210.71 502.68 210.71 488.77 267.98 476.51 267.98 465.1 225.16 453.73 267.98 441.19 267.98" fill="#005bbb"/><rect x="507.8" y="210.71" width="10.98" height="10.16" fill="#005bbb"/><rect x="507.8" y="226.49" width="10.98" height="41.48" fill="#005bbb"/><path d="M549.05,226.49v8.75h-7.5V252a42.53,42.53,0,0,0,.21,5.92,2.42,2.42,0,0,0,1,1.39,3.11,3.11,0,0,0,1.85.54,14.27,14.27,0,0,0,4.42-1.05l.94,8.51a21.78,21.78,0,0,1-8.68,1.64,13.82,13.82,0,0,1-5.35-1,7.78,7.78,0,0,1-3.49-2.58,10.09,10.09,0,0,1-1.55-4.28,53.82,53.82,0,0,1-.35-7.73V235.24h-5v-8.75h5v-8.24l11-6.41v14.65Z" fill="#005bbb"/><path d="M567.6,210.71v21.06q5.31-6.21,12.7-6.21a16.07,16.07,0,0,1,6.83,1.4,11.21,11.21,0,0,1,4.59,3.6,13,13,0,0,1,2.11,4.84,43,43,0,0,1,.57,8.24V268h-11V246.06q0-6.52-.62-8.28a5.48,5.48,0,0,0-2.21-2.79,7.1,7.1,0,0,0-4-1,9.14,9.14,0,0,0-4.88,1.33,7.66,7.66,0,0,0-3.14,4,23.72,23.72,0,0,0-1,7.91V268h-11V210.71Z" fill="#005bbb"/><path d="M605.53,210.71h11.56v31a65.3,65.3,0,0,0,.43,9.57,9.31,9.31,0,0,0,3.54,5.64,12.3,12.3,0,0,0,7.64,2.13q4.92,0,7.42-2a7.93,7.93,0,0,0,3-4.94,64.28,64.28,0,0,0,.51-9.73V210.71H651.2v30.08q0,10.31-.94,14.57a16.22,16.22,0,0,1-3.46,7.19,17.54,17.54,0,0,1-6.74,4.67,29.47,29.47,0,0,1-11,1.73q-8.2,0-12.44-1.89a17.7,17.7,0,0,1-6.7-4.92,15.84,15.84,0,0,1-3.25-6.35,70,70,0,0,1-1.13-14.53Z" fill="#005bbb"/><polygon points="662.91 267.98 662.91 210.71 673.89 210.71 673.89 241.1 686.74 226.49 700.26 226.49 686.08 241.65 701.27 267.98 689.44 267.98 679.01 249.34 673.89 254.7 673.89 267.98 662.91 267.98" fill="#005bbb"/><path d="M718.3,268h-11V226.49h10.19v5.9q2.63-4.17,4.71-5.51a8.68,8.68,0,0,1,4.75-1.32,13.92,13.92,0,0,1,7.22,2.07l-3.4,9.57a9.6,9.6,0,0,0-5.15-1.8,6.08,6.08,0,0,0-3.91,1.27,8.68,8.68,0,0,0-2.52,4.59q-.91,3.31-.92,13.9Z" fill="#005bbb"/><path d="M773,262.41a44.57,44.57,0,0,1-.53-8.07l.12-12.81c0-4.76-.49-8-1.46-9.82a10.94,10.94,0,0,0-5.06-4.42q-3.6-1.72-10.94-1.73-8.08,0-12.19,2.89t-5.78,8.9l10,1.8a8,8,0,0,1,2.66-4,7.84,7.84,0,0,1,4.57-1.16c2.89,0,4.85.45,5.9,1.35s1.56,2.4,1.56,4.51v1.1a59.86,59.86,0,0,1-10.66,2.69,36.42,36.42,0,0,0-8.73,2.56,11,11,0,0,0-4.71,4.22,11.82,11.82,0,0,0-1.68,6.27,11.57,11.57,0,0,0,3.69,8.79q3.69,3.48,10.1,3.47a17.21,17.21,0,0,0,6.83-1.36,19.83,19.83,0,0,0,6-4.1c.08.21.21.63.39,1.29q.63,2.14,1,3.24H775A23.68,23.68,0,0,1,773,262.41Zm-11.19-12.17a21.44,21.44,0,0,1-.43,5.35,6.88,6.88,0,0,1-2.62,3.64,9.49,9.49,0,0,1-5.66,1.95,6,6,0,0,1-4.38-1.68,5.4,5.4,0,0,1-1.71-4,4.56,4.56,0,0,1,2.14-3.87c.94-.63,2.93-1.26,6-1.91s5.27-1.22,6.68-1.68Z" fill="#005bbb"/><rect x="783.42" y="210.71" width="10.98" height="10.16" fill="#005bbb"/><rect x="783.42" y="226.49" width="10.98" height="41.48" fill="#005bbb"/><path d="M843.38,268h-11V246.81q0-6.72-.71-8.7a6.13,6.13,0,0,0-2.28-3.06,6.55,6.55,0,0,0-3.81-1.1,8.83,8.83,0,0,0-5.12,1.57,7.85,7.85,0,0,0-3.1,4.14c-.56,1.72-.84,4.89-.84,9.53V268h-11V226.49h10.2v6.1q5.41-7,13.67-7a16.53,16.53,0,0,1,6.64,1.3,11.27,11.27,0,0,1,4.55,3.34,12.21,12.21,0,0,1,2.15,4.61,34.63,34.63,0,0,1,.6,7.39Z" fill="#005bbb"/><path d="M875.88,259.31a6.74,6.74,0,0,1-4.33,1.4,8.3,8.3,0,0,1-6.33-2.71q-2.54-2.72-2.66-7.6h27.5q.24-12.61-5.11-18.73t-14.61-6.11a17.75,17.75,0,0,0-13.64,5.84q-5.38,5.83-5.39,16.15,0,8.63,4.1,14.29,5.21,7.08,16,7.07a19.56,19.56,0,0,0,11.39-3.14,18,18,0,0,0,6.66-9.16l-10.94-1.84A8.72,8.72,0,0,1,875.88,259.31Zm-10.82-22.74A7.64,7.64,0,0,1,871,234a7.55,7.55,0,0,1,5.7,2.48c1.57,1.66,2.39,4.07,2.46,7.25h-16.4A10.14,10.14,0,0,1,865.06,236.57Z" fill="#005bbb"/><path d="M204.09,233.6V225H198.7l3.12-15.23h-9.06l-3,15.23h-8.63l3.08-15.23h-8.75L172.37,225H161.23v8.63h9.38l-2.34,11.53h-7v8.59h5.32L163.46,269h8.83l3.08-15.23h8.68L181,269h8.71l3.09-15.23h11.25v-8.59h-9.5l2.35-11.53Zm-18.32,11.53h-8.68l2.31-11.53H188Z" fill="#005bbb"/></svg>