<?xml version="1.0" encoding="UTF-8" standalone="no"?>
<!DOCTYPE svg PUBLIC "-//W3C//DTD SVG 1.1//EN" "http://www.w3.org/Graphics/SVG/1.1/DTD/svg11.dtd">
<svg version="1.1" baseProfile="full"xmlns:cc="http://web.resource.org/cc/"xmlns:rdf="http://www.w3.org/1999/02/22-rdf-syntax-ns#"xmlns:ev="http://www.w3.org/2001/xml-events"xmlns:svg="http://www.w3.org/2000/svg"xmlns="http://www.w3.org/2000/svg"xmlns:xlink="http://www.w3.org/1999/xlink"

width="506" height="761">
<!--This SVG file was automatically generated by ScxmlEditor[2.2.0.1609] from [StopWatch.scxml]-->
<rect  x="0" y="0"  width="505" height="760" fill="white"/>
<polyline fill="none"  stroke="rgb(160,160,160)"
points="0,760 0,0 505,0 "/>
<polyline fill="none"  stroke="white"
points="505,0 505,760 -1,760 "/>
<polyline fill="none"  stroke="rgb(160,160,160)"
points="1,759 1,1 504,1 "/>
<polyline fill="none"  stroke="white"
points="504,1 504,759 0,759 "/>
<g clip-path="url(#Clip1)">
<defs>
<clipPath id="Clip1" style="clip-rule:nonzero">
<rect  x="0" y="0"  width="505" height="760"/>
</clipPath>
</defs>
<g id="ScxmlStopWatch" class="TScxmlShape" >
<polygon fill="white" stroke="black"
points="3,3 503,3 503,758 3,758 "/>
<rect  x="4" y="4"  width="498" height="16" fill="rgb(192,220,192)"/>
<line x1="3" y1="20" x2="503" y2="20" fill="none"  stroke="black"/>
<text x="449" y="17" font-family="Tahoma" font-size="10.67"  fill="maroon">
ecmascript
</text>
<text x="213" y="18" font-family="Arial" font-size="10.67"  fill="black">
ScxmlStopWatch
</text>
</g>
<line x1="10" y1="19" x2="10" y2="32" fill="none"  stroke="black"/>
<line x1="14" y1="28" x2="25" y2="28" fill="none"  stroke="black"/>
<polygon fill="rgb(255,255,255)" stroke="black"
points="21,26 21,30 25,28 "/>
<line x1="10" y1="92" x2="10" y2="112" fill="none"  stroke="black"/>
<line x1="14" y1="108" x2="25" y2="108" fill="none"  stroke="black"/>
<polygon fill="rgb(255,255,255)" stroke="black"
points="21,106 21,110 25,108 "/>
<line x1="10" y1="76" x2="10" y2="92" fill="none"  stroke="black"/>
<line x1="10" y1="92" x2="25" y2="92" fill="none"  stroke="black"/>
<polygon fill="rgb(255,255,255)" stroke="black"
points="21,90 21,94 25,92 "/>
<line x1="10" y1="32" x2="10" y2="76" fill="none"  stroke="black"/>
<line x1="10" y1="76" x2="25" y2="76" fill="none"  stroke="black"/>
<polygon fill="rgb(255,255,255)" stroke="black"
points="21,74 21,78 25,76 "/>
<polygon fill="white" stroke="gray"
points="-8,376 0,376 0,384 -8,384 "/>
<line x1="-6" y1="380" x2="-1" y2="380" fill="none"  stroke="black"/>
<g id="DatamodelStateShape1__40E594536E8466A3" class="TDatamodelStateShape" >
<polygon fill="rgb(240,227,141)" stroke="rgb(152,136,18)"
points="28,23 29,22 40,22 41,23 41,25 40,26 29,26 28,25 "/>
<polygon fill="rgb(240,227,141)" stroke="rgb(152,136,18)"
points="28,27 29,26 40,26 41,27 41,29 40,30 29,30 28,29 "/>
<polygon fill="rgb(240,227,141)" stroke="rgb(152,136,18)"
points="28,31 29,30 40,30 41,31 41,33 40,34 29,34 28,33 "/>
<polygon fill="white" stroke="rgb(32,32,32)"
points="46,21 103,21 103,36 46,36 "/>
<text x="51" y="33" font-family="Arial" font-size="10.67"  fill="black">
datamodel
</text>
</g>
<line x1="35" y1="38" x2="35" y2="44" fill="none"  stroke="black"/>
<line x1="35" y1="44" x2="49" y2="44" fill="none"  stroke="black"/>
<polygon fill="rgb(255,255,255)" stroke="black"
points="45,42 45,46 49,44 "/>
<line x1="35" y1="44" x2="35" y2="60" fill="none"  stroke="black"/>
<line x1="35" y1="60" x2="49" y2="60" fill="none"  stroke="black"/>
<polygon fill="rgb(255,255,255)" stroke="black"
points="45,58 45,62 49,60 "/>
<polygon fill="white" stroke="gray"
points="6,24 14,24 14,32 6,32 "/>
<line x1="8" y1="28" x2="13" y2="28" fill="none"  stroke="black"/>
<g id="CommentShape1__40E5945664883ADC" class="TCommentShape" >
<polygon fill="rgb(255,255,86)" stroke="rgb(194,126,64)"
points="51,39 52,38 64,38 65,39 65,48 64,49 52,49 51,48 "/>
<line x1="53" y1="41" x2="63" y2="41" fill="none"  stroke="rgb(76,66,0)"/>
<line x1="53" y1="43" x2="63" y2="43" fill="none"  stroke="rgb(76,66,0)"/>
<line x1="53" y1="45" x2="63" y2="45" fill="none"  stroke="rgb(76,66,0)"/>
<line x1="53" y1="47" x2="63" y2="47" fill="none"  stroke="rgb(76,66,0)"/>
<polygon fill="white" stroke="rgb(32,32,32)"
points="70,37 122,37 122,52 70,52 "/>
<text x="75" y="49" font-family="Arial" font-size="10.67"  font-weight="bold" fill="green">
CONSTS
</text>
</g>
<g id="DataChildShape4__40E594566A0096AF" class="TDataChildShape" >
<polygon fill="white" stroke="silver"
points="52,56 54,54 60,54 62,56 62,64 60,66 54,66 52,64 "/>
<polygon fill="white" stroke="silver"
points="52,56 54,54 60,54 62,56 60,58 54,58 "/>
<ellipse cx="62" cy="64" rx="3" ry="3" fill="rgb(177,211,144)" stroke="green"/>
<line x1="60" y1="64" x2="64" y2="64" fill="none"  stroke="white"/>
<line x1="62" y1="62" x2="62" y2="66" fill="none"  stroke="white"/>
<polygon fill="white" stroke="rgb(32,32,32)"
points="70,53 244,53 244,68 70,68 "/>
<text x="75" y="65" font-family="Arial" font-size="10.67"  fill="black">
data&#32;&#123;i_UPDATE_DELAY_MS=100&#125;
</text>
</g>
<g id="CommentShape2__40E59E6EE572D315" class="TCommentShape" >
<polygon fill="rgb(255,255,86)" stroke="rgb(194,126,64)"
points="27,71 28,70 40,70 41,71 41,80 40,81 28,81 27,80 "/>
<line x1="29" y1="73" x2="39" y2="73" fill="none"  stroke="rgb(76,66,0)"/>
<line x1="29" y1="75" x2="39" y2="75" fill="none"  stroke="rgb(76,66,0)"/>
<line x1="29" y1="77" x2="39" y2="77" fill="none"  stroke="rgb(76,66,0)"/>
<line x1="29" y1="79" x2="39" y2="79" fill="none"  stroke="rgb(76,66,0)"/>
<polygon fill="white" stroke="rgb(32,32,32)"
points="46,69 220,69 220,84 46,84 "/>
<text x="51" y="81" font-family="Arial" font-size="10.67"  font-weight="bold" fill="green">
GLOBAL&#32;FUNCTIONS&#32;AND&#32;VARS
</text>
</g>
<g id="ScriptShape2__40E59E6EB0757480" class="TScriptShape" >
<polygon fill="rgb(221,238,245)" stroke="rgb(4,121,179)"
points="37,99 37,96 28,96 27,97 27,98 28,99 "/>
<polygon fill="rgb(221,238,245)" stroke="rgb(4,121,179)"
points="29,96 29,87 30,86 39,86 39,98 38,99 38,99 37,99 37,96 "/>
<polygon fill="rgb(221,238,245)" stroke="rgb(4,121,179)"
points="39,86 40,86 41,87 41,88 40,89 39,89 "/>
<polygon fill="white" stroke="rgb(32,32,32)"
points="46,85 291,85 291,100 46,100 "/>
<text x="51" y="97" font-family="Arial" font-size="10.67"  fill="black">
script&#32;&#123;function&#32;FormatTimeStr(ms)&#123;//&#32;time(ms)&#32;...&#125;
</text>
</g>
<g id="VirtualFolderShape1__40E59454FBA888A1" class="TVirtualFolderShape" >
<polygon fill="white" stroke="gray"
points="27,103 28,102 33,102 35,104 38,104 39,105 39,113 28,113 27,112 "/>
<polygon fill="rgb(197,197,224)" stroke="rgb(84,84,95)"
points="31,115 31,109 32,108 36,108 37,107 41,107 42,108 42,115 "/>
<polygon fill="white" stroke="rgb(32,32,32)"
points="46,101 99,101 99,116 46,116 "/>
<text x="51" y="113" font-family="Arial" font-size="10.67"  font-weight="bold" fill="maroon">
triggers
</text>
</g>
<polygon fill="white" stroke="gray"
points="6,104 14,104 14,112 6,112 "/>
<line x1="8" y1="108" x2="13" y2="108" fill="none"  stroke="black"/>
<line x1="10" y1="106" x2="10" y2="111" fill="none"  stroke="black"/>
<g id="stopWatch" class="TStateShape" >
<polygon fill="none" stroke="black"
points="19,138 489,138 489,748 19,748 "/>
<rect  x="20" y="139"  width="468" height="16" fill="rgb(128,214,255)"/>
<line x1="19" y1="155" x2="489" y2="155" fill="none"  stroke="black"/>
<text x="229" y="153" font-family="Arial" font-size="10.67"  fill="black">
stopWatch
</text>
</g>
<g id="StateMachineConnection7__40E594745765B931" class="TStateMachineConnection" >
<line x1="202" y1="138" x2="146" y2="104" fill="none"  stroke="blue" stroke-dasharray="2, 2" />
<line x1="146" y1="104" x2="489" y2="104" fill="none"  stroke="blue" stroke-dasharray="2, 2" />
<line x1="489" y1="104" x2="433" y2="138" fill="none"  stroke="blue" stroke-dasharray="2, 2" />
<ellipse cx="202" cy="138" rx="5" ry="5" fill="white" stroke="black"/>
<polygon fill="black" stroke="black"
points="442,124 449,136 433,138 "/>
<text x="298" y="115" font-family="Arial" font-size="10.67"  font-weight="bold" fill="black">
display
</text>
<text x="204" y="129" font-family="Arial" font-size="10.67"  fill="maroon">
&lt;send&#32;event=&quot;out.display&quot;&gt;&#13;&#10;&lt;param&#32;expr=&#32;...
</text>
</g>
<polygon fill="white" stroke="gray"
points="8,439 16,439 16,447 8,447 "/>
<line x1="10" y1="443" x2="15" y2="443" fill="none"  stroke="black"/>
<g id="ready" class="TStateShape" >
<rect  x="38" y="173"  width="260" height="36" fill="rgb(128,214,255)" stroke="rgb(255,128,0)" stroke-width="2" rx="10" ry="10"/>
<text x="156" y="197" font-family="Arial" font-size="10.67"  fill="black">
ready
</text>
</g>
<g id="StateMachineConnection1__40E5944C607838DF" class="TStateMachineConnection" >
<line x1="254" y1="210" x2="254" y2="304" fill="none"  stroke="black"/>
<ellipse cx="254" cy="210" rx="5" ry="5" fill="white" stroke="black"/>
<polygon fill="black" stroke="black"
points="249,294 259,294 254,304 "/>
<text x="232" y="266" font-family="Arial" font-size="10.67"  font-weight="bold" fill="black">
button.1
</text>
<text x="184" y="280" font-family="Arial" font-size="10.67"  fill="maroon">
&lt;script&gt;Timer.start()&lt;/script&gt;
</text>
</g>
<line x1="45" y1="210" x2="45" y2="214" fill="none"  stroke="black"/>
<line x1="49" y1="218" x2="60" y2="218" fill="none"  stroke="black"/>
<polygon fill="rgb(255,255,255)" stroke="black"
points="56,216 56,220 60,218 "/>
<polygon fill="white" stroke="gray"
points="27,187 35,187 35,195 27,195 "/>
<line x1="29" y1="191" x2="34" y2="191" fill="none"  stroke="black"/>
<g id="OnEntryStateShape2__40E59459CFDC0D63" class="TOnEntryStateShape" >
<ellipse cx="69" cy="218" rx="7" ry="7" fill="rgb(0,170,0)" stroke="black"/>
<polygon fill="white" stroke="rgb(32,32,32)"
points="79,211 124,211 124,226 79,226 "/>
<text x="84" y="223" font-family="Arial" font-size="10.67"  fill="black">
onentry
</text>
</g>
<line x1="69" y1="234" x2="69" y2="250" fill="none"  stroke="black"/>
<line x1="69" y1="250" x2="82" y2="250" fill="none"  stroke="black"/>
<polygon fill="rgb(255,255,255)" stroke="black"
points="78,248 78,252 82,250 "/>
<line x1="69" y1="227" x2="69" y2="234" fill="none"  stroke="black"/>
<line x1="69" y1="234" x2="82" y2="234" fill="none"  stroke="black"/>
<polygon fill="rgb(255,255,255)" stroke="black"
points="78,232 78,236 82,234 "/>
<polygon fill="white" stroke="gray"
points="41,214 49,214 49,222 41,222 "/>
<line x1="43" y1="218" x2="48" y2="218" fill="none"  stroke="black"/>
<g id="ScriptShape1__40E59479AC20C7B7" class="TScriptShape" >
<polygon fill="rgb(221,238,245)" stroke="rgb(4,121,179)"
points="94,241 94,238 85,238 84,239 84,240 85,241 "/>
<polygon fill="rgb(221,238,245)" stroke="rgb(4,121,179)"
points="86,238 86,229 87,228 96,228 96,240 95,241 95,241 94,241 94,238 "/>
<polygon fill="rgb(221,238,245)" stroke="rgb(4,121,179)"
points="96,228 97,228 98,229 98,230 97,231 96,231 "/>
<polygon fill="white" stroke="rgb(32,32,32)"
points="103,227 294,227 294,242 103,242 "/>
<text x="108" y="239" font-family="Arial" font-size="10.67"  fill="black">
script&#32;&#123;iLapElapsed&#32;=&#32;0&#32;iLapCount&#32;=&#32;0&#125;
</text>
</g>
<g id="RaiseShape1__40E59475F76E5D4C" class="TRaiseShape" >
<polygon fill="rgb(255,200,0)" stroke="rgb(191,120,54)"
points="84,243 91,243 91,250 84,250 "/>
<polygon fill="rgb(255,200,0)" stroke="rgb(191,120,54)"
points="90,249 97,249 97,256 90,256 "/>
<polygon fill="rgb(210,234,255)" stroke="rgb(4,121,179)"
points="87,246 94,246 94,253 87,253 "/>
<polygon fill="white" stroke="rgb(32,32,32)"
points="103,243 180,243 180,258 103,258 "/>
<text x="108" y="255" font-family="Arial" font-size="10.67"  fill="black">
raise&#32;&#123;display&#125;
</text>
</g>
<g id="active" class="TStateShape" >
<polygon fill="none" stroke="black"
points="38,304 449,304 449,570 38,570 "/>
<rect  x="39" y="305"  width="409" height="16" fill="rgb(128,214,255)"/>
<line x1="38" y1="321" x2="449" y2="321" fill="none"  stroke="black"/>
<text x="230" y="319" font-family="Arial" font-size="10.67"  fill="black">
active
</text>
</g>
<g id="StateMachineConnection5__40E59458DF1B4DBB" class="TStateMachineConnection" >
<line x1="112" y1="570" x2="112" y2="664" fill="none"  stroke="black"/>
<ellipse cx="112" cy="570" rx="5" ry="5" fill="white" stroke="black"/>
<polygon fill="black" stroke="black"
points="105,649 119,649 112,664 "/>
<text x="90" y="614" font-family="Arial" font-size="10.67"  font-weight="bold" fill="black">
button.1
</text>
<text x="32" y="628" font-family="Arial" font-size="10.67"  fill="maroon">
&lt;script&gt;Timer.suspend()&lt;/script&gt;
</text>
</g>
<polygon fill="white" stroke="gray"
points="27,433 35,433 35,441 27,441 "/>
<line x1="29" y1="437" x2="34" y2="437" fill="none"  stroke="black"/>
<g id="generator" class="TStateShape" >
<rect  x="60" y="435"  width="376" height="36" fill="rgb(128,214,255)" stroke="black" rx="10" ry="10"/>
<text x="226" y="458" font-family="Arial" font-size="10.67"  fill="black">
generator
</text>
</g>
<line x1="67" y1="472" x2="67" y2="476" fill="none"  stroke="black"/>
<line x1="71" y1="480" x2="82" y2="480" fill="none"  stroke="black"/>
<polygon fill="rgb(255,255,255)" stroke="black"
points="78,478 78,482 82,480 "/>
<g id="StateMachineConnection4__40E59455581A0B64" class="TStateMachineConnection" >
<line x1="90" y1="435" x2="60" y2="405" fill="none"  stroke="red" stroke-width="2" stroke-dasharray="4, 2" />
<line x1="60" y1="405" x2="437" y2="405" fill="none"  stroke="red" stroke-width="2" stroke-dasharray="4, 2" />
<line x1="437" y1="405" x2="407" y2="435" fill="none"  stroke="red" stroke-width="2" stroke-dasharray="4, 2" />
<ellipse cx="90" cy="435" rx="5" ry="5" fill="white" stroke="black"/>
<polygon fill="black" stroke="black"
points="413,419 423,429 407,435 "/>
<text x="229" y="416" font-family="Arial" font-size="10.67"  font-weight="bold" fill="black">
update
</text>
<text x="95" y="438" font-family="Arial" font-size="10.67"  font-weight="bold" fill="black">
1)
</text>
</g>
<g id="StateMachineConnection3__40E59455A7F65D21" class="TStateMachineConnection" >
<line x1="120" y1="435" x2="60" y2="343" fill="none"  stroke="red" stroke-width="2" stroke-dasharray="4, 2" />
<line x1="60" y1="343" x2="437" y2="343" fill="none"  stroke="red" stroke-width="2" stroke-dasharray="4, 2" />
<line x1="437" y1="343" x2="377" y2="435" fill="none"  stroke="red" stroke-width="2" stroke-dasharray="4, 2" />
<ellipse cx="120" cy="435" rx="5" ry="5" fill="white" stroke="black"/>
<polygon fill="black" stroke="black"
points="379,419 391,426 377,435 "/>
<text x="226" y="354" font-family="Arial" font-size="10.67"  font-weight="bold" fill="black">
button.2
</text>
<text x="156" y="368" font-family="Arial" font-size="10.67"  fill="maroon">
&lt;script&gt;iLapElapsed&#32;=&#32;Timer.elapsed()
</text>
<text x="218" y="382" font-family="Arial" font-size="10.67"  fill="maroon">
iLapCount++
</text>
<text x="227" y="396" font-family="Arial" font-size="10.67"  fill="maroon">
&lt;/script&gt;
</text>
<text x="125" y="438" font-family="Arial" font-size="10.67"  font-weight="bold" fill="black">
2)
</text>
</g>
<line x1="67" y1="484" x2="67" y2="524" fill="none"  stroke="black"/>
<line x1="71" y1="528" x2="82" y2="528" fill="none"  stroke="black"/>
<polygon fill="rgb(255,255,255)" stroke="black"
points="78,526 78,530 82,528 "/>
<polygon fill="white" stroke="gray"
points="49,449 57,449 57,457 49,457 "/>
<line x1="51" y1="453" x2="56" y2="453" fill="none"  stroke="black"/>
<g id="OnEntryStateShape1__40E59453AE1232C9" class="TOnEntryStateShape" >
<ellipse cx="91" cy="480" rx="7" ry="7" fill="rgb(0,170,0)" stroke="black"/>
<polygon fill="white" stroke="rgb(32,32,32)"
points="101,473 146,473 146,488 101,488 "/>
<text x="106" y="485" font-family="Arial" font-size="10.67"  fill="black">
onentry
</text>
</g>
<line x1="91" y1="496" x2="91" y2="512" fill="none"  stroke="black"/>
<line x1="91" y1="512" x2="104" y2="512" fill="none"  stroke="black"/>
<polygon fill="rgb(255,255,255)" stroke="black"
points="100,510 100,514 104,512 "/>
<line x1="91" y1="489" x2="91" y2="496" fill="none"  stroke="black"/>
<line x1="91" y1="496" x2="104" y2="496" fill="none"  stroke="black"/>
<polygon fill="rgb(255,255,255)" stroke="black"
points="100,494 100,498 104,496 "/>
<polygon fill="white" stroke="gray"
points="63,476 71,476 71,484 63,484 "/>
<line x1="65" y1="480" x2="70" y2="480" fill="none"  stroke="black"/>
<g id="RaiseShape3__40E59479AF721402" class="TRaiseShape" >
<polygon fill="rgb(255,200,0)" stroke="rgb(191,120,54)"
points="106,489 113,489 113,496 106,496 "/>
<polygon fill="rgb(255,200,0)" stroke="rgb(191,120,54)"
points="112,495 119,495 119,502 112,502 "/>
<polygon fill="rgb(210,234,255)" stroke="rgb(4,121,179)"
points="109,492 116,492 116,499 109,499 "/>
<polygon fill="white" stroke="rgb(32,32,32)"
points="125,489 202,489 202,504 125,504 "/>
<text x="130" y="501" font-family="Arial" font-size="10.67"  fill="black">
raise&#32;&#123;display&#125;
</text>
</g>
<g id="SendShape1__40E59453AECA1669" class="TSendShape" >
<polygon fill="rgb(240,240,240)" stroke="rgb(174,174,174)"
points="106,508 118,508 118,517 106,517 "/>
<line x1="106" y1="508" x2="112" y2="513" fill="none"  stroke="rgb(174,174,174)"/>
<line x1="118" y1="508" x2="112" y2="513" fill="none"  stroke="rgb(174,174,174)"/>
<line x1="107" y1="516" x2="111" y2="513" fill="none"  stroke="rgb(200,200,200)"/>
<line x1="117" y1="516" x2="113" y2="513" fill="none"  stroke="rgb(200,200,200)"/>
<polygon fill="rgb(147,204,39)" stroke="rgb(105,150,0)"
points="113,516 118,516 118,514 121,517 118,520 118,518 113,518 "/>
<polygon fill="white" stroke="rgb(32,32,32)"
points="125,505 398,505 398,520 125,520 "/>
<text x="130" y="517" font-family="Arial" font-size="10.67"  fill="black">
send&#32;&#123;update[i_UPDATE_DELAY_MS&#32;+&#32;&apos;ms&apos;][ID.update]&#125;
</text>
</g>
<g id="OnExitStateShape1__40E59454ECB467F3" class="TOnExitStateShape" >
<ellipse cx="91" cy="528" rx="7" ry="7" fill="rgb(225,0,0)" stroke="black"/>
<polygon fill="white" stroke="rgb(32,32,32)"
points="101,521 138,521 138,536 101,536 "/>
<text x="106" y="533" font-family="Arial" font-size="10.67"  fill="black">
onexit
</text>
</g>
<line x1="91" y1="537" x2="91" y2="544" fill="none"  stroke="black"/>
<line x1="91" y1="544" x2="104" y2="544" fill="none"  stroke="black"/>
<polygon fill="rgb(255,255,255)" stroke="black"
points="100,542 100,546 104,544 "/>
<polygon fill="white" stroke="gray"
points="63,524 71,524 71,532 63,532 "/>
<line x1="65" y1="528" x2="70" y2="528" fill="none"  stroke="black"/>
<g id="CancelShape1__40E59454ED4234DF" class="TCancelShape" >
<polygon fill="white" stroke="red"
points="108,539 119,539 119,548 108,548 "/>
<polygon fill="rgb(249,242,180)" stroke="rgb(134,98,4)"
points="106,547 110,543 111,544 111,545 114,545 115,546 115,548 114,549 111,549 111,550 110,551 "/>
<polygon fill="white" stroke="rgb(32,32,32)"
points="125,537 221,537 221,552 125,552 "/>
<text x="130" y="549" font-family="Arial" font-size="10.67"  fill="black">
cancel&#32;&#123;ID.update&#125;
</text>
</g>
<g id="pause" class="TStateShape" >
<rect  x="38" y="664"  width="410" height="36" fill="rgb(128,214,255)" stroke="black" rx="10" ry="10"/>
<text x="229" y="687" font-family="Arial" font-size="10.67"  fill="black">
pause
</text>
</g>
<g id="StateMachineConnection2__40E5944C639357FF" class="TStateMachineConnection" >
<line x1="371" y1="664" x2="371" y2="570" fill="none"  stroke="black"/>
<ellipse cx="371" cy="664" rx="5" ry="5" fill="white" stroke="black"/>
<polygon fill="black" stroke="black"
points="378,585 364,585 371,570 "/>
<text x="349" y="614" font-family="Arial" font-size="10.67"  font-weight="bold" fill="black">
button.1
</text>
<text x="294" y="628" font-family="Arial" font-size="10.67"  fill="maroon">
&lt;script&gt;Timer.resume()&lt;/script&gt;
</text>
<text x="376" y="667" font-family="Arial" font-size="10.67"  font-weight="bold" fill="black">
1)
</text>
</g>
<g id="StateMachineConnection6__40E5944CD8620342" class="TStateMachineConnection" >
<line x1="449" y1="683" x2="474" y2="683" fill="none"  stroke="black"/>
<line x1="474" y1="683" x2="474" y2="191" fill="none"  stroke="black"/>
<line x1="474" y1="191" x2="299" y2="191" fill="none"  stroke="black"/>
<ellipse cx="449" cy="683" rx="5" ry="5" fill="white" stroke="black"/>
<polygon fill="black" stroke="black"
points="314,184 314,198 299,191 "/>
<text x="369" y="204" font-family="Arial" font-size="10.67"  font-weight="bold" fill="black">
button.2
</text>
<text x="320" y="218" font-family="Arial" font-size="10.67"  fill="maroon">
&lt;script&gt;Timer.reset()&lt;/script&gt;
</text>
<text x="454" y="686" font-family="Arial" font-size="10.67"  font-weight="bold" fill="black">
2)
</text>
</g>
<line x1="45" y1="701" x2="45" y2="705" fill="none"  stroke="black"/>
<line x1="49" y1="709" x2="60" y2="709" fill="none"  stroke="black"/>
<polygon fill="rgb(255,255,255)" stroke="black"
points="56,707 56,711 60,709 "/>
<polygon fill="white" stroke="gray"
points="27,678 35,678 35,686 27,686 "/>
<line x1="29" y1="682" x2="34" y2="682" fill="none"  stroke="black"/>
<g id="OnEntryStateShape3__40E59474473B0725" class="TOnEntryStateShape" >
<ellipse cx="69" cy="709" rx="7" ry="7" fill="rgb(0,170,0)" stroke="black"/>
<polygon fill="white" stroke="rgb(32,32,32)"
points="79,702 124,702 124,717 79,717 "/>
<text x="84" y="714" font-family="Arial" font-size="10.67"  fill="black">
onentry
</text>
</g>
<line x1="69" y1="718" x2="69" y2="725" fill="none"  stroke="black"/>
<line x1="69" y1="725" x2="82" y2="725" fill="none"  stroke="black"/>
<polygon fill="rgb(255,255,255)" stroke="black"
points="78,723 78,727 82,725 "/>
<polygon fill="white" stroke="gray"
points="41,705 49,705 49,713 41,713 "/>
<line x1="43" y1="709" x2="48" y2="709" fill="none"  stroke="black"/>
<g id="RaiseShape2__40E59479AE2EFC55" class="TRaiseShape" >
<polygon fill="rgb(255,200,0)" stroke="rgb(191,120,54)"
points="84,718 91,718 91,725 84,725 "/>
<polygon fill="rgb(255,200,0)" stroke="rgb(191,120,54)"
points="90,724 97,724 97,731 90,731 "/>
<polygon fill="rgb(210,234,255)" stroke="rgb(4,121,179)"
points="87,721 94,721 94,728 87,728 "/>
<polygon fill="white" stroke="rgb(32,32,32)"
points="103,718 180,718 180,733 103,733 "/>
<text x="108" y="730" font-family="Arial" font-size="10.67"  fill="black">
raise&#32;&#123;display&#125;
</text>
</g>
<polygon fill="silver" stroke="silver"
points="-15,-13 -5,-13 -5,761 -15,761 "/>
</g>
<polyline fill="none"  stroke="rgb(160,160,160)"
points="0,760 0,0 505,0 "/>
<polyline fill="none"  stroke="white"
points="505,0 505,760 -1,760 "/>
<polyline fill="none"  stroke="rgb(160,160,160)"
points="1,759 1,1 504,1 "/>
<polyline fill="none"  stroke="white"
points="504,1 504,759 0,759 "/>
</svg>
